<?xml version="1.0" encoding="utf-8"?>
<!-- Generator: Adobe Illustrator 16.0.3, SVG Export Plug-In . SVG Version: 6.00 Build 0)  -->
<!DOCTYPE svg PUBLIC "-//W3C//DTD SVG 1.1//EN" "http://www.w3.org/Graphics/SVG/1.1/DTD/svg11.dtd">
<svg version="1.1" id="svg" xmlns="http://www.w3.org/2000/svg" xmlns:xlink="http://www.w3.org/1999/xlink" x="0px" y="0px"
	 width="5502px" height="5502px" viewBox="0 0 5502 5502" enable-background="new 0 0 5502 5502" xml:space="preserve">
<linearGradient id="SVGID_1_" gradientUnits="userSpaceOnUse" x1="456.9124" y1="2749.7124" x2="5042.5518" y2="2749.7124">
	<stop  offset="0" style="stop-color:#2DB27F"/>
	<stop  offset="1" style="stop-color:#10B28C"/>
</linearGradient>
<path fill="url(#SVGID_1_)" d="M3408,459.023c-121.478,10.061-283.602,61.675-372,118.43c-27,17.335-59.473,41.736-102,76.648
	c-47.373,38.89-77.42,61.104-111.608,82.517l-30.892,19.347l-58.5,0.086c-134.879,0.198-249.574,7.189-322.5,19.657
	c-79.221,13.544-229.5,59.835-229.5,70.694c0,4.427,6.338,3.168,84.535-16.792c82.784-21.13,156.015-36.504,188.074-39.484
	c18.624-1.731,20.992-1.302,26.708,4.833c8.744,9.385,9.578,17.082,12.69,117.041c2.166,69.564,4.012,94.006,8.63,114.23
	c11.2,49.061,37.157,107.28,77.475,173.77c39.83,65.684,84.429,130.456,87.627,127.262c0.968-0.967,2.436-77.584,3.261-170.26
	l1.5-168.502l28.287,46.5c81.226,133.528,135.039,198.9,217.713,264.473c33.506,26.576,72.526,51.506,137.455,87.819
	c33.299,18.623,81.981,46.876,108.182,62.784c26.199,15.908,49.343,28.924,51.429,28.924c15.808,0-2.055-49.92-55.822-156
	c-43.766-86.348-83.253-141.25-141.255-196.401c-58.414-55.542-122.312-99.003-227.488-154.728
	c-65.475-34.689-104.133-57.715-142.023-84.592C2606.722,858.017,2532,795.486,2532,790.225c0-9.112,16.103-11.231,95.424-12.557
	c114.665-1.916,266.891,7.151,345.483,20.577c41.159,7.031,70.003,19.863,107.491,47.817
	c62.714,46.767,138.489,137.217,182.159,217.438c16.203,29.764,39.748,89.337,71.006,179.661
	c60.319,174.301,91.111,231.705,162.813,303.526c54.022,54.11,129.855,109.901,158.373,116.514
	c13.639,3.163,12.955,0.863-27.216-91.69c-8.352-19.244-20.79-52.994-27.641-75c-27.381-87.963-34.563-107.487-52.791-143.511
	c-30.783-60.835-58.762-95.159-173.629-213c-52.577-53.938-79.647-86.439-119.939-144c-54.56-77.946-98.217-127.503-140.172-159.118
	c-13.053-9.835-22.207-17.882-20.342-17.882c1.864,0,25.235,4.757,51.935,10.571c111.134,24.2,117.875,27.591,184.474,92.76
	c71.868,70.325,110.657,118.918,165.372,207.169c15.344,24.75,36.721,59.175,47.503,76.5c29.668,47.672,55.59,81.08,100.091,129
	l40.396,43.5l6.863,69c12.233,122.986,21.529,162.664,51.573,220.116c18.575,35.519,41.896,67.959,73.084,101.661
	c54.959,59.387,116.373,111.148,169.042,142.473c38.143,22.686,42.284,19.108,18.413-15.906
	c-58.717-86.123-70.335-106.848-103.339-184.344c-39.43-92.584-49.921-109.884-113.694-187.471
	c-49.349-60.039-84.483-113.532-82.16-125.092c0.658-3.277,12.792,4.144,41.951,25.657
	c89.316,65.901,154.067,102.795,246.976,140.724c41.575,16.973,52.5,20.203,52.5,15.529c0-5.162-16.524-27.854-43.205-59.332
	c-29.227-34.483-72.116-90.476-106.805-139.434c-63.72-89.934-149.186-177.991-217.486-224.079
	c-32.438-21.889-40.694-31.453-57.849-67.008c-21.901-45.392-39.871-70.918-88.835-126.183
	c-9.723-10.976-16.826-20.808-15.783-21.85c1.043-1.043,23.848,7.301,50.679,18.541c131.627,55.141,190.489,91.013,276.03,168.22
	c79.022,71.322,108.231,111.636,186.775,257.776c66.872,124.424,112.099,198.122,152.81,249
	c48.562,60.689,133.203,132.468,193.01,163.68c34.902,18.215,31.302,5.082-17.322-63.18c-39.116-54.913-54.771-82.256-119.389-208.5
	c-103.514-202.235-124.031-233.923-198.602-306.698c-18.991-18.534-32.882-33.722-30.869-33.75
	c5.101-0.071,97.226,61.802,125.794,84.486c52.709,41.856,103.947,101.447,217.743,253.24c32.275,43.053,68.794,90.303,81.152,105
	c29.819,35.465,80.95,84.813,116.151,112.102c34.235,26.542,152.336,105.12,157.992,105.12c7.592,0,4.019-15.734-12.856-56.631
	c-65.591-158.952-124.993-248.834-216.89-328.171c-65.039-56.15-142.18-108.872-252.246-172.396
	c-37.125-21.426-111.271-65.606-164.767-98.179c-108.82-66.258-166.845-98.372-280.506-155.25
	c-99.129-49.605-149.605-72.988-213.018-98.677c-27.934-11.316-52.115-21.902-53.737-23.524c-3.455-3.455,3.472-6.406,39.748-16.932
	c50.723-14.719,83.661-19.985,112.78-18.034c73.435,4.922,165.666,40.585,310.5,120.062
	c136.016,74.639,222.906,110.351,316.149,129.938c39.122,8.218,40.021,8.265,154.851,8.106c67.164-0.092,130.176-1.666,150.57-3.761
	c60.387-6.204,60.2-7.899-3.57-32.364c-64.099-24.59-142.565-65.304-230.975-119.845c-64.406-39.733-114.207-65.805-165.373-86.575
	c-48.58-19.721-113.727-39.269-151.152-45.354c-40.955-6.659-162.479-11.38-241.5-9.381
	c-120.736,3.054-189.312,16.423-285.965,55.75l-29.027,11.811l-35.254-11.911c-105.518-35.648-215.29-66.871-304.037-86.475
	c-90.408-19.971-215.305-39.613-285.797-44.946c-21.218-1.604-39.362-3.703-40.32-4.661c-3.777-3.776,8.371-10.88,40.965-23.953
	c40.793-16.36,102.148-35.996,132.751-42.484c36.646-7.77,172.947-8.956,275.985-2.404c187.937,11.952,295.775,4.219,387.924-27.815
	c54.521-18.954,100.738-45.485,209.073-120.023c45.911-31.589,56.604-41.216,51.475-46.346c-2.137-2.138-29.973-4.235-76.992-5.802
	c-81.372-2.714-112.167-5.488-183.28-16.519C3556.414,458.955,3473.178,453.626,3408,459.023 M3554.086,483.141
	c36.804,3.011,110.521,13.748,144.554,21.058c11.215,2.409,14.876,4.266,12,6.088c-2.277,1.441-70.558,2.643-151.736,2.668
	c-155.817,0.049-188.852,2.128-237.903,14.974l-22.5,5.893l25.5-1.385c14.024-0.761,41.699-2.718,61.5-4.349
	c40.6-3.344,331.785-4.431,348.474-1.3c15.612,2.929,7.897,5.954-29.062,11.394c-47.08,6.931-107.4,12.771-218.912,21.198
	c-117.979,8.916-172.202,14.597-217.5,22.787c-35.916,6.494-99.816,22.15-102.871,25.205c-2.236,2.236,9.981,0.591,66.871-9.007
	c58.063-9.796,106.521-15.185,201-22.352c170.584-12.939,305.985-28.815,371.979-43.616c36.925-8.281,37.521-8.359,37.521-4.948
	c0,6.734-53.107,28.991-111.102,46.558c-41.718,12.638-85.287,20.148-185.898,32.046c-88.01,10.407-97.359,11.891-93.975,14.9
	c4.212,3.747,161.479-6.983,200.475-13.678l9-1.546l-10.645,5.896c-21.438,11.875-70.068,20.429-166.355,29.261
	c-58.73,5.386-295.235,8.973-284.498,4.313c3.575-1.552,35.26-5.679,70.408-9.169c35.149-3.491,64.623-7.124,65.498-8.074
	c4.754-5.159-96.111,4.117-200.908,18.477c-104.489,14.318-106.924,14.584-103.5,11.311c1.649-1.579,16.484-8.021,32.967-14.317
	s28.423-11.962,26.533-12.591c-4.487-1.496-29.955,5.189-82.707,21.71c-73.644,23.063-70.041,15.333,11.207-24.055
	c55.431-26.872,96.355-44.104,143.623-60.47c16.707-5.784,31.471-11.566,32.807-12.849c7.506-7.2-83.437,15.53-119.579,29.888
	c-25.53,10.143-30.873,11.096-25.431,4.536c21.532-25.943,227.447-97.024,308.387-106.454
	C3389.823,479.586,3510.612,479.586,3554.086,483.141 M3774,588.394c-13.916,12.128-86.627,47.37-125.558,60.858
	c-39.94,13.837-79.227,21.727-127.629,25.629c-48.369,3.9-178.483,4.069-210.394,0.274c-13.155-1.565-44.846-4.54-70.42-6.611
	c-63.418-5.136-47.141-7.75,51-8.19c157.17-0.705,284.463-12.277,352.968-32.089c13.458-3.891,48.558-16.521,78-28.066
	c29.442-11.545,55.557-20.983,58.032-20.973C3782.699,579.237,3780.3,582.904,3774,588.394 M1705.5,794.096
	c-21.787,11.754-75.931,54.87-163.5,130.204c-107.425,92.412-157.516,149.922-220.63,253.304
	c-27.27,44.668-74.359,140.444-95.087,193.396c-9.365,23.925-25.944,66.45-36.844,94.5c-21.818,56.151-61.831,139.672-84.797,177
	c-74.584,121.227-106.415,179.489-148.739,272.25c-18.091,39.65-21.875,30.366-17.005-41.729
	c5.821-86.185,15.456-137.995,46.959-252.507c59.868-217.614,66.85-251.68,69.278-338.015
	c1.803-64.123-2.468-114.376-17.095-201.218c-14.638-86.892-34.576-168.638-43.354-177.739c-4.634-4.805-6.093,4.03-10.671,64.609
	c-7.091,93.834-20.427,155.944-55.576,258.848c-95.831,280.55-93.116,270.831-97.498,349.016
	c-4.347,77.57,3.113,157.788,21.527,231.484c12.367,49.492,26.258,85.635,51.887,135l21.805,42l-16.161,42
	c-57.566,149.607-113.853,355.37-151,552c-8.388,44.402-11.472,53.674-16.473,49.523c-4.713-3.911-28.169-73.754-38.798-115.523
	c-13.636-53.581-14.19-64.505-12.024-237c3.175-252.83-0.293-274.925-73.212-466.5c-21.936-57.631-30.106-86.88-37.622-134.671
	c-7.455-47.414-14.191-46.32-34.94,5.671c-15.935,39.926-57.646,164.901-65.584,196.5c-9.646,38.391-18.108,92.094-21.758,138.072
	c-7.299,91.943,9.293,190.953,48.601,290.033c23.475,59.172,53.302,107.069,120.119,192.895
	c99.719,128.088,109.473,151.075,115.196,271.5c3.04,63.947,10.3,128.588,19.711,175.5
	c30.915,154.093,75.912,326.281,87.066,333.175c4.043,2.499,3.548-1.003-6.499-45.946C823.992,3147.668,801,3032.456,801,3022.357
	c0-8.903,3.389-13.977,23.25-34.803c38.899-40.79,101.425-89.817,155.25-121.735c46.727-27.708,82.847-36.275,199.5-47.313
	c87.31-8.262,149.256-20.246,207-40.048c113.175-38.81,180.133-81.922,257.014-165.485
	c58.27-63.334,111.986-129.147,111.986-137.208c0-6.913-9.461-3.889-34.084,10.896c-81.806,49.115-145.087,68.734-310.121,96.146
	c-92.455,15.356-127.668,22.672-162.317,33.717c-15.412,4.912-28.58,8.375-29.261,7.693c-0.682-0.681,13.435-31.497,31.371-68.478
	c41.326-85.214,61.705-131.393,81.301-184.239c8.565-23.1,22.297-59.996,30.515-81.992c9.287-24.859,14.591-43.576,14.019-49.465
	l-0.922-9.472l-12,13.088c-15.557,16.967-59.268,54.845-123,106.586c-100.18,81.33-143.195,123.294-187.088,182.515
	c-40.037,54.02-65.477,97.728-137.503,236.24c-80.894,155.568-111.305,207-122.396,207c-20.188,0-31.654-223.287-17.872-348
	c7.152-64.719,21.847-112.025,53.866-173.407c60.098-115.21,137.813-168.146,326.629-222.489
	c28.575-8.223,63.971-19.159,78.658-24.304c64.82-22.7,127.274-59.823,166.032-98.692
	c54.966-55.123,180.171-223.832,180.173-242.777c0-6.863-0.675-7.097-15.75-5.486c-28.473,3.042-108.467,32.662-171.75,63.596
	c-75.257,36.784-121.262,71.134-207.01,154.561c-65.089,63.328-102.217,94.602-161.99,136.449
	c-82.568,57.805-129.76,101.248-175.219,161.301c-22.249,29.391-28.704,35.007-25.862,22.5
	c21.508-94.664,23.202-98.789,53.625-130.477c27.882-29.043,78.152-67.877,169.956-131.288
	c116.599-80.539,153.685-109.822,208.724-164.803c40.944-40.902,68.904-75.112,103.739-126.933
	c20.008-29.764,21.029-30.751,31.854-30.796c26.75-0.111,103.341-6.399,127.09-10.435c49.563-8.42,97.364-26.196,174.558-64.914
	c72.475-36.351,106.447-58.657,156.536-102.784c44.114-38.864,97.723-89.74,107.298-101.829l9.474-11.962l-8.886,2.222
	c-4.888,1.222-40.307,14.248-78.709,28.947c-89.345,34.197-157.729,57.559-249.677,85.297
	c-87.683,26.45-128.805,40.519-158.673,54.285c-12.194,5.62-22.638,10.219-23.207,10.219c-1.933,0,10.182-28.372,37.146-87
	c33.531-72.906,41.839-95.094,37.301-99.632c-4.203-4.203-13.888,2.375-65.438,44.453
	C1334.925,1660.752,1257.055,1734.665,1221,1785c-34.83,48.625-46.832,59.271-84,74.514c-38.918,15.96-89.069,44.732-132.754,76.16
	c-18.251,13.131-35.023,24.58-37.271,25.442c-5.371,2.062-4.325-0.55,26.06-65.064c47.223-100.264,60.637-119.628,147.83-213.407
	c87.775-94.403,152.251-143.589,308.136-235.06c38.774-22.753,88.215-52.649,109.866-66.437
	c45.712-29.11,67.874-40.078,81.063-40.119c13.428-0.041,73.749-15.715,98.57-25.611c25.146-10.027,49.712-25.019,141.72-86.495
	c82.554-55.159,114.418-71.751,173.909-90.556c46.668-14.751,60.871-20.67,60.871-25.367c0-15.333-107.073-27.491-187.552-21.296
	c-26.755,2.059-50.993,5.836-66.633,10.383c-13.521,3.931-25.207,6.522-25.97,5.759c-1.858-1.857,3.801-16.983,20.521-54.846
	c27.224-61.649,51.599-137.249,57.304-177.73c4.146-29.428-6.019-47.627-13.205-23.64c-9.334,31.154-87.963,131.499-160.587,204.938
	c-35.166,35.56-96.467,88.969-183.551,159.921c-147.257,119.979-198.913,164.554-278.079,239.951
	c-28.397,27.048-52.207,48.603-52.908,47.9c-2.581-2.581,77.124-99.661,215.386-262.34
	c109.072-128.333,148.223-181.939,191.657-262.424c21.581-39.99,90.617-182.898,90.617-187.582
	C1722,787.712,1715.891,788.49,1705.5,794.096 M2543.039,845.25c14.422,15.677,49.015,87.394,65.391,135.568
	c7.538,22.175,14.522,41.074,15.521,42c2.961,2.74-1.857-25.649-11.367-66.974c-4.893-21.26-8.389-41.51-7.77-45
	c1.912-10.777,31.059,53.164,36.57,80.229c6.535,32.093,9.135,109.833,5.013,149.917c-3.438,33.438-5.274,40.364-9.543,36.02
	c-1.356-1.381-11.238-36.261-21.957-77.511c-21.284-81.908-45.59-159.467-57.349-183c-7.045-14.096-7.389-14.367-5.706-4.5
	c0.983,5.775,9.835,38.85,19.668,73.5c23.222,81.827,59.515,224.252,59.397,233.098c-0.148,11.23-3.699,2.465-23.935-59.098
	c-20.94-63.7-35.955-104.52-37.777-102.697c-0.665,0.665,6.3,28.576,15.477,62.024s16.049,61.451,15.271,62.228
	c-2.69,2.691-19.469-36.804-41.019-96.555c-34.954-96.92-36.273-88.636-2.555,16.044c21.472,66.661,24.26,78.759,15.662,67.956
	c-7.263-9.126-31.992-62.395-44.287-95.391c-15.014-40.297-17.651-65.456-15.1-143.974c1.168-35.951,2.547-64.941,3.064-64.425
	c0.517,0.518,7.132,23.749,14.701,51.627c13.156,48.463,23.123,76.662,27.096,76.662c1.016,0,1.176-1.085,0.355-2.411
	c-2.005-3.244-31.863-115.864-31.863-120.182c0-1.874,2.024-3.407,4.5-3.407c2.475,0,4.483-0.337,4.464-0.75
	c-0.02-0.412-1.923-7.837-4.229-16.5C2525.681,830.761,2528.697,829.658,2543.039,845.25 M1664.627,878.25
	c-48.901,118.38-94.557,186.637-226.245,338.25c-24.364,28.05-64.822,75.311-89.907,105.023
	c-54.191,64.189-59.455,69.336-52.676,51.506c2.473-6.504,2.093-7.178-3.263-5.777c-5.503,1.439-5.209,0.076,3.201-14.826
	c10.482-18.574,11.255-21.833,4.566-19.266c-6.783,2.603-3.902-5.311,17.275-47.461c9.894-19.69,19.287-39.266,20.878-43.5
	c11.466-30.553-34.309,48.07-87.513,150.312c-36.561,70.259-44.944,83.977-44.944,73.529c0-7.687,24.185-67.595,52.798-130.788
	c45.855-101.273,90.546-176.427,146.433-246.252c20.513-25.629,102.204-109.88,111.27-114.755c4.995-2.688,5.439-2.517,2.651,1.014
	c-23.406,29.65-105.78,145.77-116.334,163.991c-7.037,12.15,5.687-2.604,45.276-52.5c70.406-88.736,168.724-199.932,172.997-195.659
	c2.14,2.141-4.091,26.96-9.391,37.409c-9.049,17.84-48.385,75.892-81.169,119.791c-18.397,24.635-32.769,45.472-31.936,46.305
	c2.408,2.408,24.02-19.795,47.786-49.096c28.145-34.698,62.599-85.314,82.706-121.5c31.207-56.164,42.521-75,45.052-75
	C1675.553,849,1671.272,862.163,1664.627,878.25 M4015.951,864.064c73.487,12.535,121.617,26.32,182.549,52.285
	c49.567,21.123,136.5,64.39,136.5,67.937c0,3.91-4.492,2.521-49.5-15.311c-56.244-22.282-131.357-45.118-135.332-41.145
	c-1.515,1.515,13.924,7.742,69.332,27.965c55.058,20.096,169.254,70.419,252.25,111.16c44.226,21.71,58.78,31.044,48.405,31.044
	c-16.153,0-211.512-63.87-335.247-109.605c-135.047-49.914-244.199-86.978-272.972-92.688c-14.334-2.845-6.171,2.65,13.564,9.129
	c8.25,2.709,88.574,32.289,178.5,65.734c197.765,73.553,229.31,84.623,325.5,114.229c41.25,12.696,76.092,24.045,77.426,25.22
	c10.341,9.095-184.151-20.148-239.416-36c-46.481-13.33-37.621-3.274,10.49,11.907c38.293,12.083,86.914,22.786,136.853,30.125
	c22.694,3.335,41.912,6.713,42.705,7.506c2.666,2.666-72.736,1.468-106.058-1.686c-86.961-8.231-188.272-41.775-295.5-97.84
	c-47.285-24.724-99-55.312-99-58.556c0-1.361,0.478-2.477,1.063-2.477s50.699,18.961,111.365,42.135
	c60.666,23.174,110.919,41.519,111.672,40.766c3.298-3.299-30.816-19.229-103.007-48.103
	c-96.443-38.573-198.605-77.869-231.703-89.123c-30.881-10.5-36.414-14.345-27.504-19.114c5.398-2.889,1.118-4.61-30.114-12.115
	c-53.616-12.883-55.107-16.235-7.271-16.339c62.836-0.139,130.149,7.143,220.5,23.848c25.574,4.728,51.899,9.341,58.5,10.25
	l12,1.653l-11.211-4.259c-6.166-2.342-32.153-9.935-57.75-16.874c-25.597-6.938-46.539-13.766-46.539-15.171
	C3957,856.363,3978.207,857.625,4015.951,864.064 M3430.645,914.557c34.45,16.531,56.577,32.149,83.047,58.619
	c24.067,24.067,66.633,78.26,91.971,117.089c19.127,29.312,17.239,34.414-7.865,21.271c-22.805-11.939-95.291-60.512-125.17-83.875
	C3429.256,993.746,3315,883.164,3315,875.101C3315,871.869,3407.334,903.372,3430.645,914.557 M1586.07,940.722
	c-36.961,40.634-102.515,124.437-157.055,200.778c-37.525,52.525-99.04,144.547-112.118,167.721
	c-9.175,16.258-9.414,17.349-3.385,15.435c9.103-2.89,8.335,3.027-2.512,19.345c-12.604,18.959-11.2,21.35,2.358,4.02
	c24.919-31.851,134.713-185.766,139.83-196.02c4.806-9.632-15.062,15.6-48.424,61.5c-50.248,69.13-79.025,106.5-82.012,106.5
	c-14.395,0,103.885-169.798,223.133-320.326c56.946-71.882,59.958-75.833,58.726-77.032
	C1604,922.047,1595.656,930.183,1586.07,940.722 M2754,997.813c54.188,38.916,97.909,67.279,103.375,67.064
	c5.763-0.227-21.142-22.128-63.393-51.604c-23.042-16.075-45.075-32.613-48.962-36.75c-6.673-7.104-6.737-7.523-1.144-7.523
	c3.258,0,7.205,1.227,8.772,2.727c1.568,1.5,31.09,18.456,65.604,37.682c34.516,19.225,74.427,42.947,88.691,52.718
	c76.396,52.325,149.195,127.193,205.356,211.191c34.735,51.954,23.015,44.831-21.862-13.287
	c-39.622-51.313-96.775-109.532-129.033-131.438c-44.41-30.159-44.326-29.115,0.914,11.506
	c69.358,62.275,147.714,159.889,197.992,246.652c14.303,24.684,2.979,15.536-24.14-19.5
	c-69.901-90.309-153.88-172.233-223.675-218.202c-21.828-14.376-23.442-16.031,39.799,40.796
	c20.787,18.681,54.13,50.861,74.093,71.514c56.684,58.642,139.106,158.146,134.672,162.58c-0.981,0.981-21.791-16.941-46.246-39.826
	C3051.522,1324.876,2982.937,1266,2977.229,1266c-1.46,0,17.563,20.25,42.271,45s43.778,45,42.379,45
	c-6.368,0-164.152-137.133-229.312-199.299c-15.681-14.96-27.054-24.501-25.272-21.201c6.815,12.633,58.402,64.504,131.759,132.484
	c41.952,38.877,75.554,71.407,74.672,72.29c-2.162,2.161-20.146-9.895-63.226-42.383
	c-73.447-55.388-156.414-147.852-201.396-224.447c-38.625-65.771-40.699-66.683,43.527,19.12
	c75.316,76.728,122.219,120.945,101.228,95.436c-4.752-5.775-40.189-43.384-78.75-83.577c-38.56-40.192-70.109-74.327-70.109-75.854
	c0-4.901,9.53,2.105,44.918,33.022c18.932,16.539,35.104,29.386,35.942,28.548c1.593-1.593-17.519-20.522-89.84-88.981
	c-23.914-22.636-41.464-41.132-39-41.102C2699.484,960.086,2725.125,977.077,2754,997.813 M1818.679,1060.146
	c-30.461,62.522-42.332,81.522-71.166,113.908c-29.275,32.881-103.47,102.383-135.422,126.856
	c-37.066,28.391-211.612,123.415-220.968,120.297c-1.914-0.638,5.236-7.809,15.891-15.934c10.654-8.126,25.471-20.601,32.928-27.723
	l13.559-12.948l-10.5,5.099c-11.39,5.528-39.189,24.585-92.687,63.536c-18.802,13.689-34.909,24.167-35.794,23.281
	c-4.581-4.58,66.547-66.565,185.064-161.275c45.604-36.442,104.516-84,130.916-105.684c59.089-48.53,70.5-57.134,70.5-53.152
	c0,1.716-23.262,25.163-51.691,52.105c-84.583,80.158-105.763,101.032-104.148,102.647c5.569,5.569,85.642-66.496,177.633-159.866
	c40.813-41.426,74.207-74.5,74.207-73.496c0,3.499-46.024,68.871-64.193,91.18c-46.054,56.545-109.953,116.274-183.33,171.367
	c-22.262,16.715-40.477,30.935-40.477,31.6c0,5.168,57.063-35.222,112.487-79.618c73.089-58.545,102.481-91.876,173.036-196.222
	c23.204-34.315,42.883-61.698,43.732-60.85C1839.104,1016.104,1830.295,1036.305,1818.679,1060.146 M3533.084,1087.876
	c25.07,16.293,66.246,42.179,91.5,57.525c75.414,45.824,126.584,86.96,175.328,140.939c47.918,53.068,45.191,56.929-7.518,10.648
	c-57.535-50.519-130.745-105.31-122.168-91.432c1.173,1.898,30.064,26.584,64.203,54.858
	c86.214,71.402,147.732,133.972,198.045,201.432c40.589,54.422,49.096,67.749,37.837,59.281
	c-12.028-9.046-49.856-42.459-112.312-99.203c-35.476-32.23-97.575-87.458-138-122.727
	c-99.551-86.853-165.347-147.477-190.181-175.229c-11.374-12.711-20.149-23.631-19.5-24.267c0.649-0.637,17.38,8.952,37.181,21.308
	c36.781,22.953,58.5,35.133,58.5,32.807c0-0.717-21.222-15.932-47.157-33.812c-42.393-29.222-87.403-66.694-75.843-63.138
	C3485.475,1057.63,3508.013,1071.583,3533.084,1087.876 M1032.475,1146.463c2.134,20.37,3.887,71.462,3.896,113.537
	c0.015,66.9-0.835,81.018-6.771,112.5c-17.493,92.77-74.166,294.43-77.866,277.071c-0.577-2.71,7.007-39.16,16.855-81
	c26.479-112.498,33.793-155.183,33.079-193.071c-0.245-13.045-0.582-13.827-2.58-6c-4.885,19.132-51.264,239.807-61.452,292.398
	c-10.739,55.43-14.421,66.357-18.65,55.354c-4.857-12.644-6.341,10.449-4.737,73.748c1.761,69.395-0.443,106.09-6.255,104.182
	c-1.922-0.631-6.513-12.517-10.204-26.414c-12.751-48.018-16.042-80.924-17.681-176.768c-0.861-50.325-2.327-93.525-3.258-96
	c-3.106-8.256-9.558,30.945-13.221,80.335c-2.398,32.342-4.722,48.47-6.876,47.756c-1.79-0.594-4.166-7.044-5.282-14.335
	c-3.262-21.326-2.757-128.091,0.802-169.743c3.952-46.238,10.947-70.717,62.049-217.132c33.454-95.852,46.903-136.994,59-180.478
	c5.945-21.373,10.678-25.003,10.678-8.191c0,28.281-22.492,110.969-59.714,219.523c-10.039,29.278-22.342,69.104-27.341,88.5
	c-8.676,33.665-15.023,76.316-10.779,72.429c1.103-1.009,9.315-25.984,18.25-55.5c30.1-99.423,76.551-230.764,79.008-223.393
	c1.821,5.468-3.231,29.698-27.889,133.729c-12.123,51.15-25.443,110.55-29.601,132c-7.089,36.574-15.724,111.711-13.136,114.299
	c0.643,0.644,2.83-7.936,4.859-19.064c2.03-11.129,15.831-70.185,30.671-131.234c33.317-137.074,43.638-187.745,47.657-234
	c3.318-38.176,4.91-46.5,8.895-46.5c4.586,0,6.119,9.348,6.119,37.305c0,15.299,0.908,36.45,2.02,47.006
	c1.894,18,2.21,18.632,5.104,10.189c1.759-5.128,3.339-44.497,3.672-91.5c0.321-45.375,0.811-84.525,1.086-87
	C1024.131,1089.743,1028.9,1112.341,1032.475,1146.463 M2036.057,1105.943c-1.069,1.068-16.008,3.762-33.197,5.984
	c-17.188,2.223-34.427,5.274-38.307,6.782c-6.407,2.49-5.868,2.942,5.884,4.929c7.115,1.203,11.84,3.147,10.5,4.319
	s-20.588,8.565-42.772,16.429c-63.01,22.336-147.164,58.67-147.164,63.539c0,3.604,18.632-2.051,70.72-21.466
	c29.123-10.854,54.387-19.258,56.143-18.672c1.755,0.585-8.184,9.992-22.086,20.905c-13.901,10.912-32.231,27.057-40.731,35.876
	c-25.625,26.585-123.799,80.643-164.545,90.604c-33.671,8.232-37.5,8.65-37.5,4.087c0-12.16,34.347-31.807,84.704-48.452
	c39.113-12.928,68.235-25.388,60.012-25.676c-2.081-0.072-19.372,4.592-38.425,10.367c-19.052,5.775-35.911,10.5-37.466,10.5
	c-8.344,0,0.324-14.023,27.187-43.98c32.248-35.965,46.396-46.993,75.751-59.053c70.903-29.128,67.43-27.399,57.085-28.399
	c-5.31-0.514-22.643,2.524-38.519,6.75c-37.728,10.042-41.571,9.815-28.329-1.664c19.909-17.261,46.55-27.305,85.5-32.235
	C1924.99,1104.317,2038.922,1103.078,2036.057,1105.943 M2637.858,1129.5c0.023,8.25,0.605,11.27,1.295,6.709
	c0.689-4.56,0.671-11.31-0.041-15C2638.4,1117.52,2637.836,1121.25,2637.858,1129.5 M3973.998,1217.382
	c47.045,52.358,89.933,106.7,148.002,187.532c34.229,47.648,14.588,5.7-28.574-61.028c-14.626-22.611-62.326-87.913-89.215-122.136
	c-1.815-2.311-1.851-3.75-0.09-3.75c4.824,0,39.725,33.078,63.284,59.979c43.553,49.733,72.374,98.201,163.427,274.832
	c25.605,49.673,54.793,103.872,64.861,120.444c10.068,16.573,18.307,31.733,18.307,33.689c0,20.656-64.658-76.03-117.285-175.384
	c-20.506-38.713-35.41-61.342-35.606-54.061c-0.138,5.123,34.901,75.408,52.819,105.95c34.9,59.489,74.242,114.102,111.424,154.674
	c10.395,11.343,18.23,21.293,17.413,22.111c-2.624,2.624-23.382-15.705-57.39-50.675c-67.855-69.774-113.031-136.855-175.41-260.468
	c-15.137-29.995-28.184-53.874-28.994-53.063c-2.417,2.417,24.81,63.065,51.613,114.969c24.176,46.816,35.778,67.061,59.465,103.752
	c12.051,18.668,11.25,23.289-1.299,7.5c-28.144-35.406-72.31-104.316-106.125-165.58c-27.282-49.427-94.625-177.352-94.625-179.749
	c0-0.991,10.271,8.634,22.823,21.39c19.99,20.31,21.998,21.699,16.173,11.189c-3.66-6.6-27.094-38.098-52.076-69.995
	c-24.98-31.896-48.118-61.597-51.416-66C3915.225,1159.781,3952.743,1193.729,3973.998,1217.382 M3423.189,1214.224
	c56.073,59.192,92.046,108.056,113.785,154.557c16.75,35.832,53.263,156.235,50.124,165.286c-1.46,4.21-28.826-49.814-49.928-98.566
	c-23.922-55.267-57.047-115.23-63.768-115.436c-3.036-0.094,3.436,14.675,38.094,86.936c44.336,92.439,59.555,130.712,49.504,124.5
	c-5.073-3.135-3.418,1.278,7.405,19.745c22.933,39.127-2.694,12.786-64.448-66.245c-53.321-68.239-58.31-73.723-45.029-49.5
	c16.511,30.115,61.522,94.447,85.714,122.503c12.567,14.577,22.1,27.255,21.181,28.174c-5.443,5.444-73.643-62.795-104.133-104.193
	c-31.404-42.641-51.288-78.98-71.734-131.101c-22.466-57.27-45.412-124.014-44.045-128.115c0.571-1.714,8.891,11.699,18.485,29.808
	c32.293,60.944,41.224,76.805,42.521,75.509c0.709-0.709-11.652-30.621-27.47-66.47c-15.817-35.85-28.268-66.652-27.668-68.451
	c2.181-6.544,63.154,94.244,126.64,209.337c41.613,75.441,69.735,121.5,74.183,121.5c4.074,0,2.666-6.199-3.317-14.601
	c-3.143-4.414-27.643-47.823-54.443-96.464c-26.801-48.64-66.078-117.353-87.284-152.696
	c-21.206-35.343-38.556-65.546-38.556-67.118c0-1.571,13.632,10.227,30.291,26.219c44.16,42.385,43.543,35.323-1.574-18.031
	c-12.469-14.744-22.68-27.935-22.693-29.311C3374.981,1167.441,3397.935,1187.566,3423.189,1214.224 M3647.781,1284
	c29.68,29.934,28.59,28.354-23.481-34.061c-21.823-26.158-38.961-48.278-38.085-49.154s12.099,7.811,24.938,19.306
	s57.097,49.784,98.347,85.087c68.392,58.532,157.14,136.678,195,171.706c8.25,7.633,13.452,13.931,11.563,13.997
	c-1.89,0.065-34.29-20.324-72-45.309c-37.71-24.986-73.963-48.778-80.563-52.872l-12-7.444l10.5,11.18
	c11.69,12.447,75.504,61.01,112.5,85.612c31.993,21.277,59.225,42.228,57.339,44.113c-4.063,4.062-90.732-48.452-139.282-84.394
	c-67.51-49.977-144.406-121.737-183.412-171.162c-21.541-27.295-53.6-74.203-55.982-81.913
	c-0.883-2.856,14.357,11.683,33.866,32.308S3633.877,1269.975,3647.781,1284 M4272.898,1339.934
	c16.545,8.502,44.45,28.254,76.463,54.125c16.975,13.719,31.36,24.941,31.969,24.941c0.609,0,0.401-2.7-0.461-6
	c-0.863-3.3-0.877-6-0.029-6c5.787,0,89.391,70.461,125.443,105.725c30.51,29.842,88.133,114.367,121.651,178.444
	c13.763,26.313,16.214,35.681,8.565,32.746c-6.254-2.4-5.635,0.694,2.922,14.585c12.302,19.973,7.896,34.842-6.459,21.797
	c-11.18-10.162-14.092-4.543-4.137,7.985c5.088,6.401,8.621,12.27,7.853,13.039c-3.281,3.28-71.88-47.655-113.58-84.334
	c-27.914-24.554-54.372-54.347-111.451-125.501c-44.433-55.389-68.794-89.34-66.065-92.069c0.885-0.885,14.564,11.147,30.399,26.737
	c22.669,22.317,14.63,12.078-37.803-48.154c-74.62-85.72-91.968-107.212-88.958-110.221c4.451-4.452,217.584,216.42,323.472,335.221
	c63.269,70.984,82.423,88.347,41.583,37.693c-38.749-48.06-106.831-121.426-250.023-269.429
	c-55.686-57.556-102.646-107.262-104.354-110.456C4255.973,1333.475,4259.826,1333.216,4272.898,1339.934 M1518.495,1379.521
	c-3.853,2.964-32.878,20.032-64.5,37.933c-123.395,69.845-162.01,94.819-222.857,144.13c-30.273,24.534-43.542,31.451-27.9,14.543
	c15.892-17.175,84.123-71.993,115.263-92.602C1385.898,1438.92,1556.843,1350.023,1518.495,1379.521 M4400.988,1438.488
	c3.869,4.119,7.696,6.826,8.504,6.019c1.992-1.992-8.648-13.507-12.48-13.507C4395.33,1431,4397.119,1434.37,4400.988,1438.488
	 M3767.82,1540.551c16.625,22.247,30.991,40.449,31.924,40.449c0.934,0-2.598-7.505-7.846-16.678s-8.59-17.61-7.427-18.75
	c7.834-7.678,91.529,126.627,91.529,146.877c0,9.187-4.297,4.611-27.043-28.805c-11.63-17.087-23.129-32.712-25.552-34.723
	c-12.694-10.536,2.458,20.454,37.337,76.359c13.309,21.329,23.543,39.433,22.745,40.23c-3.439,3.44-16.564-13.214-48.083-61.012
	c-62.304-94.486-117.474-196.549-100.609-186.126C3736.332,1499.324,3751.194,1518.304,3767.82,1540.551 M3735.029,1554.236
	c13.845,37.895,36,87.734,38.078,85.656c0.629-0.629-4.313-14.839-10.981-31.578c-12.986-32.596-15.463-44.024-7.845-36.207
	c2.354,2.416,17.343,27.343,33.309,55.393c32.538,57.168,45.193,75.959,102.586,152.335C3930.072,1832.929,3936.03,1842,3931,1842
	c-3.439,0-40.33-37.855-77.474-79.5c-16.188-18.15-32.11-35.7-35.383-39c-13.484-13.597,7.522,18.523,29.464,45.054
	c21.829,26.395,33.455,43.446,29.621,43.446c-4.869,0-31.773-22.489-43.938-36.729c-50.42-59.017-92.519-137.055-108.789-201.661
	C3707.468,1505.973,3713.405,1495.046,3735.029,1554.236 M4493.324,1541.25c28.137,31.436,62.643,75.715,95.176,122.132
	c14.85,21.189,30.104,42.033,33.897,46.321l6.897,7.797l-6.569-13.5c-18.456-37.922-135.735-186-147.313-186
	C4473.817,1518,4481.877,1528.463,4493.324,1541.25 M1918.447,1554.085c-5.362,8.677-113.63,56.937-199.446,88.904
	c-81.089,30.204-99.512,37.5-98.146,38.866c4.531,4.53,149.091-44.537,200.812-68.162c17.692-8.081,33.889-14.693,35.99-14.693
	c9.324,0-55.41,41.171-131.156,83.416c-50.852,28.36-63.881,36.557-49.463,31.118c20.192-7.618,69.088-32.886,110.963-57.345
	l46.5-27.158l-16.5,15.256c-62.58,57.861-216.162,127.068-322.144,145.164c-39.485,6.742-74.616,4.99-83.784-4.178
	c-7.204-7.204,21.662-28.641,86.428-64.182c68.075-37.356,56.379-36.052-25.5,2.846c-37.139,17.643-46.704,21.137-47.514,17.354
	c-0.557-2.605,1.27-7.258,4.057-10.34c7.578-8.373,46.701-27.704,83.957-41.483c31.562-11.672,46.946-16.442,166.5-51.62
	c62.308-18.334,112.658-36.662,180-65.524C1907.195,1552.096,1922.658,1547.27,1918.447,1554.085 M1428,1616.173
	c-57.17,53.234-132.168,129.188-147.656,149.535c-19.707,25.888-44.851,70.292-39.803,70.292c0.68,0,6.923-8.438,13.873-18.75
	c22.105-32.792,47.64-62.57,90.949-106.068c41.354-41.531,72.924-68.894,75.974-65.845c2.617,2.618-11.464,21.793-89.714,122.166
	c-145.923,187.179-212.743,266.221-243.686,288.253c-12.161,8.66-10.664,6.503,46.063-66.361c45.528-58.481,72-96.42,72-103.188
	c0-7.999-17.047,9.108-54.551,54.747c-6.078,7.395-11.815,12.681-12.752,11.745c-3.798-3.798,78.403-129.894,111.269-170.684
	c26.446-32.823,66.672-75.155,104.534-110.011c28.5-26.237,106.309-90.713,109.5-90.738
	C1464.824,1581.259,1448.625,1596.967,1428,1616.173 M4497.338,1644.381c17.863,20.15,82.408,82.312,104.039,100.198
	c5.432,4.492,10.603,7.44,11.49,6.554c3.916-3.916-123.701-128.133-131.639-128.133
	C4479.662,1623,4486.912,1632.621,4497.338,1644.381 M1428.26,1700.485c-24.867,49.261-86.937,145.113-118.318,182.719
	c-41.947,50.265-113.395,121.343-117.673,117.065c-0.832-0.832,16.43-20.974,38.359-44.758
	c21.93-23.785,42.571-46.484,45.872-50.445l6-7.2l-9.725,6.753c-5.348,3.714-33.943,30.294-63.544,59.066
	c-29.602,28.773-54.668,52.314-55.704,52.314c-3.062,0,1.507-6.35,19.425-27c25.543-29.436,59.209-71.914,120.073-151.5
	c127.244-166.385,143.17-181.753,69.95-67.5c-30.517,47.619-41.09,65.886-39.22,67.756c3.907,3.908,35.218-40.041,90.103-126.477
	C1435.829,1676.677,1442.986,1671.314,1428.26,1700.485 M1572,1720.764c-90.992,34.944-150,59.168-150,61.579
	c0,12.688,149.713-17.391,172.571-34.671c9.679-7.316,0.299-5.757-42.189,7.016c-39.509,11.875-76.382,19.17-76.382,15.109
	c0-1.23,10.463-6.527,23.25-11.771c44.037-18.062,106.008-46.016,107.554-48.519c0.853-1.379,1.133-2.391,0.623-2.25
	C1606.916,1707.399,1590.975,1713.476,1572,1720.764 M589.119,1822.5c4.157,21.45,18.496,104.475,31.865,184.5
	c23.662,141.641,29.032,169.982,31.704,167.311c1.886-1.886-8.712-84.679-25.941-202.651c-8.287-56.756-14.57-104.69-13.961-106.521
	c1.313-3.938,19.188,43.946,32.236,86.362c11.661,37.905,22.665,92.444,27.237,135c3.568,33.22,1.733,157.686-2.853,193.5
	l-2.112,16.5l-5.247-18c-7.832-26.866-10.66-32.341-9.3-18c0.627,6.6,2.554,30.225,4.282,52.5c1.729,22.275,3.947,47.25,4.93,55.5
	c2.807,23.586-3.419,12.865-10.452-18c-3.385-14.85-11.601-56.025-18.258-91.5c-11.776-62.756-20.277-97.973-22.994-95.256
	c-2.824,2.824,16.918,137.486,30.351,207.025c17.504,90.613-0.221,52.808-31.651-67.508
	c-10.124-38.756-32.431-159.626-41.664-225.762c-9.442-67.623-15.139-128.241-18.024-191.817
	c-2.694-59.372-1.19-88.908,4.625-90.825c4.668-1.539,6.077,5.664,11.571,59.143c9.79,95.3,30.619,244.98,35.069,252
	c4.754,7.5,0.396-62.634-10.719-172.5c-13.587-134.308-15.254-156.757-11.361-153C580.162,1782.15,584.964,1801.05,589.119,1822.5
	 M4666.399,1792.6c9.833,9.833,13.3,16.4,8.659,16.4c-3.387,0-28.059-21.28-28.059-24.201
	C4647,1778.766,4656.309,1782.509,4666.399,1792.6 M538.175,1871.25c3.366,119.367,14.097,218.957,34.995,324.75
	c19.752,99.993,52.463,213.77,76.333,265.5c14.457,31.331,19.86,46.5,16.567,46.5c-4.985,0-15.5-18.01-38.988-66.785
	c-30.396-63.121-55.887-127.832-71.778-182.215c-6.991-23.925-15.213-50.925-18.271-60c-5.302-15.736-5.569-16.014-5.784-6
	c-0.505,23.607,30.566,155.076,41.902,177.296c3.217,6.306,5.806,14.556,5.754,18.334c-0.095,6.788-0.15,6.798-4.754,0.87
	c-8.304-10.697-42.009-80.083-56.105-115.5c-16.271-40.877-33.136-103.284-39.74-147.05c-5.6-37.108-6.321-119-1.375-156.113
	c7.333-55.032,33.156-158.837,39.512-158.837c1.836,0,2.318,2.237,1.13,5.25c-7.765,19.694-9.24,238.009-1.81,267.75
	c1.442,5.775,2.858,9.825,3.146,9s2.375-61.575,4.639-135c3.978-129.073,5.619-153,10.496-153
	C535.304,1806,537.163,1835.363,538.175,1871.25 M1156.434,1878.131c-26.809,52.901-104.108,172.397-136.734,211.369
	c-29.924,35.746-146.664,154.605-151.788,154.543c-4.552-0.055-1.425-11.127,27.543-97.543
	c50.921-151.9,62.13-167.842,158.397-225.28c38.45-22.94,103.561-58.015,107.949-58.148
	C1163.066,1863.032,1160.651,1869.809,1156.434,1878.131 M1503.262,1902.226c-3.981,3.314-16.131,10.896-27,16.848
	c-96.395,52.782-168.651,97.796-172.316,107.346c-0.967,2.519-1.143,4.581-0.391,4.581c0.751,0,17.627-10.196,37.5-22.657
	c61.688-38.68,148.166-85.122,151.777-81.51c3.531,3.531-231.848,185.647-286.832,221.926
	c-37.742,24.902-90.112,53.241-98.389,53.241c-7.936,0-2.287-5.383,26.225-24.985c49.024-33.706,141.489-113.688,136.824-118.354
	c-0.892-0.892-19.503,10.407-41.357,25.108s-41.776,27.916-44.27,29.366c-7.9,4.593,27.221-30.696,61.467-61.761
	c57.764-52.399,88.509-72.765,176.657-117.017C1492.589,1899.503,1519.495,1888.71,1503.262,1902.226 M1483.559,1981.624
	c-22.327,27.247-77.337,84.64-105.776,110.356c-34.025,30.771-63.749,51.441-96.194,66.899
	c-26.625,12.685-137.287,49.818-144.347,48.437c-2.607-0.512,26.309-16.18,64.259-34.819
	c76.899-37.771,137.385-72.597,157.608-90.747c18.739-16.816,7.292-13.084-33.011,10.768
	c-33.121,19.602-55.387,31.482-59.001,31.482c-4.271,0,12.951-16.115,37.903-35.469c162.259-125.855,162-125.662,162-120.665
	c0,1.801-10.47,14.381-23.264,27.954c-29.947,31.77-35.294,38.18-31.848,38.18c1.55,0,20.297-16.273,41.661-36.162
	C1491.6,1962.413,1505.418,1954.947,1483.559,1981.624 M4651.394,2187.75c5.647,25.28,11.573,49.271,23.526,95.25
	c17.633,67.833,31.961,139.071,34.172,169.905c1.713,23.886,1.582,24.514-6.131,29.567c-9.971,6.534-52.176,10.221-119.041,10.396
	c-27.268,0.072-61.018,1.529-75,3.238c-77.422,9.467-153.721,44.342-277.42,126.809c-49.944,33.296-59.9,41.35-54.979,44.47
	c2.188,1.388,77.891,2.543,168.229,2.568c90.338,0.024,164.221,1.059,164.186,2.296c-0.035,1.238-17.248,12.335-38.25,24.66
	c-173.032,101.549-261.575,187.601-344.275,334.59c-31.994,56.865-61.865,108.262-83.603,143.85
	c-22.688,37.142-24.21,45.631-7.94,44.306c15.716-1.281,57.891-18.899,127.634-53.317c92.315-45.557,136.863-76.027,196.235-134.221
	c63.362-62.105,108.257-126.124,169.789-242.117c55.824-105.23,92.224-159.419,155.669-231.75
	c23.256-26.511,29.532-30.502,33.15-21.074c6.216,16.197,8.406,96.432,5.02,183.824c-7.171,185.042-17.279,267.905-37.919,310.814
	c-40.877,84.986-178.204,204.099-288.782,250.477c-39.113,16.405-65.522,26.211-140.162,52.049
	c-153.158,53.018-216.043,84.323-279.034,138.909c-52.798,45.752-132.113,149.238-138.374,180.542
	c-2.008,10.032-1.926,10.126,7.211,8.298c5.082-1.016,28.581-10.487,52.219-21.047c51.559-23.032,79.263-33.215,139.472-51.263
	c125.519-37.626,166.829-64.294,298.777-192.872c73.118-71.25,107.509-100.451,168.729-143.269c23.1-16.156,51.449-36.875,63-46.042
	c31.019-24.62,84.141-77.384,99.656-98.984c7.463-10.39,13.986-18.47,14.499-17.956c1.886,1.886-28.292,130.393-34.469,146.781
	c-9.213,24.441-25.741,48.135-56.062,80.361c-61.01,64.846-134.817,124.258-220.125,177.19c-27.226,16.892-63.676,39.522-81,50.29
	c-46.752,29.056-80.791,55.712-126.246,98.865l-40.746,38.682l-67.254,6.734c-124.414,12.455-159.518,20.231-213.558,47.312
	c-39.077,19.581-62.487,35.325-98.514,66.252c-57.259,49.153-116.983,118.117-151.587,175.037
	c-25.649,42.19-23.853,48.716,7.525,27.341c94.01-64.041,110.461-73.212,200.404-111.705
	c83.536-35.751,102.493-47.439,176.167-108.618c63.037-52.345,127.988-93.485,127.766-80.929c-0.021,1.238-13.052,19.8-28.955,41.25
	c-63.096,85.096-107.396,163.614-143.193,253.792c-13.66,34.411-16.246,44.708-11.23,44.708c4.457,0,24.961-14.882,51.42-37.321
	c43.432-36.833,85.097-69.086,132.733-102.749c101.229-71.533,183.044-149.18,232.815-220.958
	c27.05-39.009,34.396-45.753,66.451-60.991c39.158-18.613,79.15-45.918,119.746-81.756c18.836-16.627,34.81-29.669,35.498-28.98
	c2.025,2.025-42.629,106.611-62.56,146.525c-39.325,78.75-79.042,134.443-143.021,200.549
	c-72.117,74.516-100.496,94.191-257.164,178.296c-215.002,115.419-290.592,176.401-374.618,302.227
	c-23.197,34.735-32.251,53.79-27.716,58.325c3.035,3.036,29.383-12.385,66.423-38.88c55.499-39.699,79.09-53.396,190.411-110.539
	c221.01-113.451,261.051-138.972,325.541-207.479c14.244-15.131,28.793-29.539,32.332-32.017c5.732-4.016,5.494-2.888-2.192,10.372
	c-13.935,24.035-55.74,85.023-74.966,109.363c-48.207,61.029-99.291,104.928-274.715,236.07
	c-120.416,90.019-164.039,132.732-228.717,223.952c-24.877,35.087-77.283,116.239-77.283,119.675
	c0,10.769,66.575-14.388,160.5-60.646c104.895-51.661,178.239-110.274,249.787-199.618c50.832-63.473,88.188-119.632,144.631-217.42
	c18.57-32.175,60.859-103.05,93.977-157.5c73.093-120.181,97.45-163.781,153.342-274.5c48.896-96.864,80.317-163.365,99.926-211.5
	c27.637-67.838,31.453-76.5,33.699-76.5c2.592,0,11.26,26.327,23.262,70.65c7.064,26.088,8.072,35.332,7.998,73.35
	c-0.074,37.05-1.225,47.727-7.758,72c-17.865,66.382-46.232,130.451-109.75,247.873
	c-104.644,193.451-135.98,286.677-140.508,417.999c-2.676,77.608,5.6,241.833,12.534,248.769
	c3.661,3.661,10.983-10.111,26.92-50.641c19.66-49.997,61.409-134.116,89.337-180c10.545-17.325,29.047-47.7,41.116-67.5
	c58.358-95.74,104.059-207.135,118.487-288.807c7.586-42.938,11.228-131.394,9.647-234.34
	c-2.147-140.007-10.556-187.382-52.403-295.275l-13.74-35.423l25.963-80.077c37.619-116.032,55.455-181.449,77.046-282.578
	c16.397-76.809,35.813-205.639,41.334-274.257c1.196-14.879,3.612-27.241,5.442-27.847c7.645-2.531,51.991,116.368,62.396,167.293
	c12.299,60.197,13.142,147.308,2.97,307.311c-5.697,89.65-4.217,204.568,3.28,254.561c10.739,71.604,33.435,140.535,62.417,189.565
	c22.704,38.409,101.596,156.484,114.804,171.821c7.828,9.091,12.093,12.004,14.318,9.779c1.888-1.889,4.644-37.425,6.821-87.947
	c3.877-89.971,5.441-105.885,19.261-195.779c12.362-80.425,16.032-131.725,13.944-195c-2.963-89.886-14.237-149.164-47.36-249
	c-35.127-105.876-62.847-155.779-139.138-250.5c-56.881-70.622-72.83-92.167-94.291-127.385L4743,2788.73l-0.029-85.615
	c-0.053-155.146-8.316-253.422-28.704-341.34c-19.271-83.096-52.304-180.775-61.136-180.775
	C4651.318,2181,4650.551,2183.98,4651.394,2187.75 M1259.588,2370.044c-77.098,81.521-124.268,137.028-171.893,202.275
	c-27.353,37.473-36.644,52.681-32.184,52.681c4.45,0,27.629-26.479,57.031-65.15c59.375-78.093,187.81-217.996,191.491-208.591
	c3.811,9.736-74.056,132.722-138.176,218.241c-67.776,90.396-179.187,222.893-241.516,287.225
	c-38.404,39.64-52.325,51.321-45.126,37.869c2.019-3.772,28.861-44.712,59.649-90.977c57.134-85.854,82.845-126.906,80.774-128.977
	c-2.151-2.15-45.91,55.327-76.508,100.494c-33.769,49.848-37.359,54.639-39.416,52.582c-0.786-0.786,12.286-26.539,29.049-57.228
	c119.122-218.091,174.751-289.988,304.09-393.018c30.015-23.909,55.078-43.472,55.696-43.472S1278.336,2350.22,1259.588,2370.044
	 M1302.393,2406.365c-26.836,67.109-83.088,178.168-113.021,223.135c-30.068,45.171-184.685,200.188-192.187,192.686
	c-0.915-0.916,8.065-11.906,19.957-24.425S1037.93,2775,1036.912,2775c-1.017,0-9.303,6.75-18.412,15
	c-15.813,14.32-22.5,18.021-22.5,12.451c0-1.401,11.556-15.914,25.68-32.25c98.258-113.646,196.88-245.67,261.729-350.373
	c14.195-22.92,26.266-40.305,26.822-38.635C1310.787,2382.864,1307.261,2394.191,1302.393,2406.365 M4614.979,2514
	c11.563,0,20.309,0.712,19.438,1.583s-18.983,6.313-40.25,12.094c-49.121,13.354-84.627,25.022-86.791,28.525
	c-0.928,1.501,0.07,2.082,2.219,1.291c6.203-2.285,117.627-31.493,120.14-31.493c1.246,0,2.267,2.182,2.267,4.85
	c0,3.578,1.77,4.364,6.75,2.998c3.713-1.018,12.149-2.707,18.75-3.752l12-1.9l-9,9.666c-18.569,19.941-89.703,54.688-154.5,75.468
	c-17.326,5.556-28.685,10.521-25.242,11.031c3.441,0.51,28.279-3.923,55.195-9.851s51.101-10.334,53.742-9.791
	c12.973,2.666-52.613,31.894-86.695,38.635c-23.067,4.563-155.582,5.019-169.5,0.582c-18.888-6.018-16.469-6.937,96.574-36.682
	c84.594-22.259,173.518-52.685,164.215-56.186c-1.765-0.664-24.039,4.794-49.5,12.131
	c-131.994,38.033-269.789,72.715-269.789,67.904c0-1.234,33.394-13.429,74.209-27.099c74.849-25.067,107.6-37.585,89.291-34.125
	c-4.951,0.937-33.115,8.394-62.59,16.571c-29.474,8.179-54.326,14.134-55.226,13.234c-2.754-2.755,40.088-21.115,94.759-40.613
	c105.264-37.54,84.166-35.662-34.459,3.067c-25.033,8.173-47.051,14.86-48.927,14.86c-21.168,0,91.067-51.929,128.942-59.659
	c27.66-5.645,32.801-5.928,83.729-4.612C4571.805,2513.428,4603.418,2514,4614.979,2514 M1648.5,2554.739
	c-11.252,9.403-89.631,48.017-127.057,62.592c-37.279,14.519-61.552,20.002-159.443,36.017
	c-98.125,16.055-113.545,20.108-165.996,43.644c-22.075,9.905-41.682,18.009-43.57,18.009c-6.299,0-3.54-5.617,6.316-12.855
	c27.425-20.146,78.414-42.474,149.113-65.299c27.151-8.765,47.795-16.46,45.877-17.099c-5.837-1.946-75.113,16.021-117.812,30.554
	c-43.427,14.781-44.929,15.144-44.929,10.825c0-7.507,55.515-32.155,95.405-42.358c12.702-3.248,57.032-10.582,98.511-16.296
	c41.48-5.713,91.418-12.985,110.972-16.161c19.555-3.176,36.827-4.986,38.383-4.024c3.489,2.155-14.336,8.569-40.271,14.487
	c-32.406,7.396-63,16.944-63,19.664c0,3.487,2.709,3.287,29.375-2.17c33.37-6.828,101.439-29.563,143.125-47.806
	c41.694-18.246,43.505-18.944,49.5-19.117C1655.726,2547.268,1653.95,2550.182,1648.5,2554.739 M1562.677,2620.607
	c-7.843,7.845-54.367,26.275-151.177,59.892c-51.15,17.761-97.051,34.438-102,37.062c-8.482,4.493-8.613,4.827-2.282,5.809
	c22.389,3.467,172.83-47.916,256.571-87.632c19.409-9.206,36.112-16.737,37.117-16.737c11.166,0-74.094,53.182-132.406,82.591
	c-73.359,36.997-128.117,52.583-263.14,74.897c-88.387,14.606-114.776,20.574-78.86,17.832
	c60.062-4.585,194.334-24.869,239.606-36.198c16.284-4.074,30.33-6.685,31.214-5.801c3.005,3.005-25.407,13.575-56.661,21.079
	c-77.446,18.594-225.325,36.082-256.174,30.295c-9.344-1.754-10.379-2.709-7.146-6.604c5.586-6.73,83.322-44.479,110.043-53.436
	c12.715-4.263,25.142-9.058,27.617-10.656c10.723-6.928-12.301-2.16-45,9.319c-58.679,20.599-62.828,21.854-65.009,19.674
	c-2.889-2.889,21.471-27.294,33.1-33.162c20.618-10.403,88.948-34.497,114.409-40.341c14.85-3.409,64.019-12.437,109.265-20.062
	c79.146-13.337,122.689-23.91,177.235-43.035C1569.625,2614.655,1568.379,2614.906,1562.677,2620.607 M4362.791,2639.153
	c4.56,0.688,11.31,0.671,15-0.041c3.689-0.712-0.041-1.276-8.291-1.255C4361.25,2637.881,4358.23,2638.463,4362.791,2639.153
	 M1096.845,2704.338c-30.715,32.087-55.845,59.134-55.845,60.106c0,7.058,44.632-36.775,85.475-83.944
	c27.693-31.982,29.725-34.5,27.835-34.5C1153.418,2646,1127.56,2672.252,1096.845,2704.338 M1553.533,2674.975
	c-26.895,22.646-97.352,62.92-105.389,60.24c-1.835-0.611,4.694-6.051,14.509-12.087c36.885-22.683,98.94-58.762,101.38-58.94
	C1565.427,2664.084,1560.701,2668.939,1553.533,2674.975 M4532.766,2711.039c-5.396,7.954-22.012,31.336-36.924,51.961
	c-33.586,46.456-58.877,86.376-58.734,92.708c0.139,6.181,8.811-4.083,36.5-43.208c40.168-56.757,54.111-73.98,57.305-70.787
	c2.045,2.044,2.002,4.297-0.129,6.91c-1.74,2.132-18.791,31.906-37.893,66.164c-38.725,69.448-58.38,100.127-87.219,136.126
	c-25.401,31.71-74.026,80.757-108.539,109.481c-42.688,35.529-100.997,74.741-105.076,70.662
	c-1.467-1.466,2.559-4.816,61.943-51.585c61.504-48.438,111.639-101.88,135.06-143.972c6.058-10.886,5.19-10.329-9.337,6
	c-51.697,58.111-103.604,105.878-162.977,149.979c-36.588,27.179-87.393,60.674-107.396,70.807l-12.85,6.509l6-6.789
	c3.299-3.733,23.549-20.408,45-37.053c67.025-52.015,156.354-143.663,196.188-201.282c8.619-12.469,15.098-22.67,14.395-22.67
	c-0.701,0-12.406,12.488-26.011,27.75c-60.911,68.337-140.711,144.796-205.1,196.512c-59.536,47.819-68.149,48.401-22.449,1.518
	c37.601-38.574,82.287-88.326,107.908-120.142c24.53-30.461,24.657-30.638,22.092-30.638c-1.217,0-22.539,19.913-47.383,44.25
	c-52.478,51.41-49.782,45.91,13.767-28.073c40.579-47.243,67.891-77.821,151.1-169.177c19.507-21.417,19.771-21.898,5.494-9.994
	c-17.156,14.305-90.801,89.046-154.11,156.405c-23.711,25.228-43.81,45.17-44.663,44.315c-0.854-0.854,6.995-13.404,17.441-27.89
	c64.621-89.598,128.465-153.86,207.197-208.552c26.896-18.682,86.043-54.018,97.633-58.326c3.026-1.124-8.674,11.324-25.998,27.662
	C4373.47,2823.509,4300.758,2898,4307.234,2898c1.592,0,35.656-31.751,75.697-70.557c71.104-68.911,90.068-85.762,90.068-80.028
	c0,1.553-12.268,16.832-27.26,33.954c-49.604,56.648-40.041,50.017,27.555-19.106c36.703-37.53,67.305-67.663,68.006-66.961
	C4542.004,2696.004,4538.162,2703.086,4532.766,2711.039 M4867.488,3010.411c27.1,55.399,44.961,97.274,61.508,144.208
	c15.414,43.719,18.83,50.027,16.176,29.881c-2.815-21.39-20.037-83.03-30.592-109.5c-4.936-12.375-8.468-23.03-7.85-23.678
	c2.818-2.952,11.67,8.607,21.443,28.005c33.267,66.02,78.381,206.492,88.214,274.673c5.473,37.948,4.593,168.466-1.513,224.415
	c-5.301,48.588-18.299,124.302-22.684,132.135c-1.52,2.716-3.186-61.723-3.988-154.192c-1.455-167.565-3.008-189.146-17.262-239.857
	l-5.902-21l1.36,22.5c0.748,12.375,2.958,34.65,4.911,49.5c4.839,36.801,5.607,368.777,0.863,373.523
	c-7.771,7.776-18.155-77.945-32.709-270.023c-11.227-148.175-16.723-189.58-35.238-265.5c-11.952-49.003-13.965-39.684-4.014,18.582
	c11.099,64.982,15.974,108.16,24.322,215.418c9.123,117.198,17.117,197.073,27.078,270.549c7.051,52.01,18.92,115.124,24.09,128.11
	c1.647,4.139,1.116,5.299-1.976,4.315c-10.61-3.371-41.185-80.233-56.478-141.975c-6.119-24.704-15.414-85.181-21.209-138
	c-12.474-113.678-19.643-144.085-16.623-70.5c2.07,50.415,9.778,140.371,13.434,156.75c3.669,16.441-0.336,13.734-8.189-5.536
	c-12.373-30.366-24.154-121.946-30.645-238.214c-3.965-71.021-3.964-212.146,0-208.182c1.661,1.66,6.232,33.992,10.162,71.85
	c5.331,51.372,7.226,63.125,7.471,46.332c0.475-32.5-4.251-79.706-17.951-179.347c-6.644-48.316-11.656-91.517-11.14-96
	c0.729-6.334,3.563-1.466,12.701,21.813c6.468,16.483,12.276,28.423,12.905,26.534c1.479-4.438-5.154-29.833-21.797-83.433
	c-7.354-23.685-13.369-44.735-13.369-46.78C4833,2947.486,4847.617,2969.79,4867.488,3010.411 M4844.834,3453.576
	c5.99,86.123,15.196,150.313,27.672,192.924c3.382,11.55,13.562,39.9,22.621,63c22.738,57.973,27.988,73.5,24.855,73.5
	c-9.432,0-53.475-87.712-71.677-142.743c-6.505-19.666-14.001-48.582-16.658-64.257c-6.625-39.096-11.501-137.302-9.89-199.199
	c1.277-49.043,9.205-150.65,13.482-172.801c1.114-5.775,2.965,37.009,4.109,95.076
	C4840.494,3357.143,4842.963,3426.668,4844.834,3453.576 M4625.992,3317.25c-0.025,7.697-34.688,103.257-44.625,123.018
	c-14.16,28.166-39.752,61.227-66.601,86.041c-21.694,20.051-74.128,59.685-107.362,81.154
	c-38.162,24.654-34.529,10.86,17.748-67.398c43.111-64.535,69.715-96.646,136.59-164.857
	C4615.894,3319.973,4626.013,3310.845,4625.992,3317.25 M4276.222,3347.979c-1.638,1.637-25.87,15.236-53.851,30.221
	c-78.17,41.863-74.584,41.805,19.969-0.331c65.519-29.198,77.568-32.556,50.66-14.115c-32.64,22.367-106.334,65.828-192.496,113.521
	c-81.834,45.3-119.994,68.238-123.824,74.435c-4.235,6.853,5.359,2.59,45.472-20.204c22.741-12.923,69.023-38.797,102.848-57.498
	c33.824-18.701,88.25-50.113,120.947-69.806c32.696-19.693,60.235-35.017,61.197-34.056c0.963,0.963-10.602,14.346-25.697,29.739
	c-41.943,42.771-34.664,42.074,17.088-1.635c15.42-13.022,28.852-22.862,29.848-21.865c2.599,2.599-55.773,60.819-89.383,89.152
	c-38.91,32.8-81.864,60.928-114.597,75.039c-27.03,11.653-125.429,42.146-148.16,45.914l-11.743,1.946l7.5-6.145
	c4.125-3.38,37.875-19.891,75-36.689c66.49-30.089,112.572-53.967,126.432-65.515c13.966-11.635-1.983-6.14-48.513,16.715
	c-50.782,24.944-126.899,59.64-144.67,65.942c-9.861,3.497-11.25,3.419-11.25-0.635c0-3.523-4.648-2.026-19.5,6.279
	c-10.726,5.997-19.5,9.635-19.5,8.082c0-3.619,36.599-34.404,98.089-82.512c51.899-40.602,61.525-49.765,38.061-36.23
	c-42.653,24.603-97.424,64.133-141.399,102.054c-19.159,16.521-15.354,7.208,7.77-19.013c25.618-29.052,51.059-52.674,80.873-75.095
	c60.846-45.758,103.187-66.186,222.607-107.399C4275.869,3344.515,4280.998,3343.202,4276.222,3347.979 M1104.955,3395.25
	c-11.414,27.102-18.258,120.725-13.213,180.75c1.74,20.698,6.409,49.261,10.421,63.75c5.53,19.972,6.327,26.25,3.332,26.25
	c-2.166,0-24.505-8.848-49.644-19.661c-87.034-37.438-162.172-59.547-196.352-57.772c-21.41,1.11-24.317,7.143-6.429,13.337
	c21.659,7.497,66.122,38.771,124.158,87.323c80.752,67.559,131.791,123.094,272.283,296.273
	c88.98,109.686,143.282,171.844,216.737,248.107c36.661,38.062,42.138,44.393,38.403,44.393
	c-4.026,0-118.227-94.122-231.153-190.515c-195.954-167.264-227.502-188.655-400.401-271.497
	c-41.312-19.793-77.224-35.988-79.808-35.988c-15.172,0,23.322,52.73,129.211,177c111.613,130.989,198.468,198.576,352.591,274.374
	c47.871,23.543,74.635,34.69,196.407,81.81c59.42,22.991,142.118,64.41,196.5,98.416c88.25,55.184,167.295,97.844,243.75,131.551
	c35.388,15.602,34.745,19.853-3,19.84c-88.366-0.031-174.437-15.707-335.35-61.076c-78.971-22.266-154.557-40.594-201.609-48.889
	c-90.416-15.936-194.283-10.226-341.291,18.764c-49.441,9.75-104.729,23.523-119.946,29.882c-9.088,3.797-10.728,5.494-7.21,7.462
	c2.503,1.401,32.137,4.74,65.854,7.42c101.514,8.069,163.649,22.152,284.803,64.547c136.802,47.871,209.015,71.873,233.605,77.646
	c39.742,9.328,93.945,13.229,156.395,11.254c114.58-3.624,202.104-24.925,293.875-71.521l46.377-23.549l64.623,23.784
	c150.877,55.527,348.355,109.511,505.625,138.216c75.604,13.801,84.883,17.422,65.645,25.625
	c-19.074,8.133-72.256,25.038-109.145,34.694c-50.488,13.215-88.879,15.118-228.979,11.347
	c-175.908-4.736-256.155,1.153-335.304,24.61c-17.169,5.088-64.967,21.894-106.217,37.346
	c-85.679,32.097-117.228,41.64-157.5,47.646c-43.483,6.484-52.764,11.597-38.25,21.07c18.027,11.771,176.092,66.869,231.75,80.785
	c57.994,14.5,102.06,20.506,162,22.075c83.179,2.181,144.853-7.067,224.834-33.713c85.496-28.481,131.08-55.104,242.148-141.424
	c121.541-94.457,139.041-101.652,265.018-108.95c81.393-4.715,127.606-10.291,187.5-22.621
	c94.518-19.458,219.672-49.13,265.75-63.006c26.813-8.074,59.791-21.873,57.572-24.091c-0.781-0.782-28.288,4.54-61.123,11.829
	c-120.545,26.756-196.482,41.427-204.285,39.469c-15.313-3.844-80.462-75.453-121.565-133.621
	c-49.968-70.714-62.661-108.094-72.836-214.5c-11.274-117.902-23.712-182.842-47.978-250.5
	c-31.438-87.654-63.957-143.253-117.089-200.193C2608.391,3849.306,2485.57,3744,2473.56,3744c-5.088,0,0.67,14.339,16.87,42.015
	c45.396,77.552,65.443,143.785,92.572,305.859c15.343,91.665,24.85,136.931,34.644,164.963c4.203,12.031,6.916,22.601,6.027,23.49
	c-0.889,0.888-38.415-16.021-83.395-37.575c-96.535-46.26-121.586-57.027-198.181-85.186c-91.665-33.7-100.356-36.498-106.18-34.188
	c-4.666,1.853-3.514,3.884,8.3,14.636c18.092,16.469,49.665,52.674,97.221,111.486c113.842,140.79,166.938,189.16,282.062,256.959
	c37.885,22.311,65.006,36.848,175.5,94.063c118.504,61.365,177,96.168,177,105.308c0,6.229-9.277,9.705-38.531,14.437
	c-50.741,8.207-124.479,11.631-210.469,9.772c-135.754-2.935-184.166-13.455-273-59.331
	c-113.943-58.842-167.316-136.613-220.515-321.314c-35.563-123.469-67.646-189.649-117.632-242.636
	c-46.604-49.401-225.101-184.045-247.209-186.472c-15.495-1.702-10.306,25.1,20.469,105.715
	c31.477,82.451,68.924,149.393,117.03,209.205c12.298,15.29,48.572,54.813,80.608,87.827
	c64.078,66.034,90.492,97.712,134.489,161.288c52.609,76.022,89.171,115.662,149.982,162.606
	c34.495,26.63,37.888,30.073,29.628,30.073c-11.238,0-80.91-18.518-96.507-25.65c-32.591-14.904-77.259-67.852-166.915-197.85
	c-118.521-171.852-172.281-229.975-283.831-306.873l-37.901-26.127l-1.988-37.5c-6.363-120.003-19.055-166.952-75.013-277.5
	c-31.396-62.027-56.646-101.265-92.876-144.336C1616.166,3625.912,1530.705,3537,1526.476,3537c-3.772,0-2.604,3.646,22.09,69
	c45.965,121.643,56.482,152.927,105.894,315c9.307,30.525,24.084,72.713,32.841,93.75c8.757,21.038,14.941,38.25,13.743,38.25
	c-2.575,0-45.625-18.988-102.043-45.009c-60.504-27.904-84-35.196-84-26.066c0,8.082,107.194,137.464,171.991,207.593
	c39.387,42.625,69.864,70.004,114.675,103.017c39.75,29.284,35.99,24.164,67.1,91.353c18.062,39.008,36.613,70.129,69.177,116.053
	c13.433,18.941,23.191,34.85,21.688,35.351c-3.663,1.222-117.318-52.339-143.453-67.603
	c-42.441-24.787-80.81-56.867-156.776-131.082c-82.121-80.228-127.872-141.942-213.583-288.105
	c-25.157-42.9-55.856-93.525-68.221-112.5c-26.962-41.376-36.513-60.943-36.612-75c-0.205-29.191-25.011-104.797-45.461-138.557
	c-8.31-13.719-37.148-58.019-64.084-98.443c-60.557-90.881-72.055-112.763-91.694-174.51
	C1117.457,3379.412,1113.937,3373.925,1104.955,3395.25 M1111.271,3491.167c1.163,12.833,3.606,30.083,5.429,38.333l3.315,15
	l3.376-13.46c1.888-7.525,4.311-11.949,5.496-10.032c1.166,1.887,6.965,17.393,12.887,34.461
	c20.408,58.812,63.479,158.531,68.471,158.531c2.831,0-8.814-36.648-25.354-79.787c-9.839-25.663-17.89-47.99-17.89-49.613
	c0-5.408,5.843,0.537,28.518,29.02c12.367,15.535,25.96,30.521,30.205,33.303c14.059,9.212,56.141,79.356,77.21,128.696
	c13.126,30.739,21.711,66.977,16.961,71.592c-7.409,7.197-36.583-39.978-46.201-74.71c-7.515-27.135-26.539-75.462-27.991-71.105
	c-0.703,2.107,3.752,20.075,9.899,39.931c16.742,54.08,12.168,53.961-45.514-1.185c-33.13-31.671-38.124-39.422-56.308-87.376
	c-7.453-19.653-14.952-37.137-16.665-38.85c-5.914-5.914-3.297,17.391,5.454,48.562c4.712,16.788,7.665,30.523,6.562,30.523
	c-4.787,0-18.405-17.842-25.564-33.496c-13.657-29.861-17.032-52.691-18.72-126.654c-1.014-44.453-0.531-68.009,1.372-66.832
	C1107.834,3467.016,1110.109,3478.333,1111.271,3491.167 M4444.256,3483.75c-1.153,2.063-9.799,15.225-19.213,29.25
	s-32.352,50.475-50.972,81c-61.78,101.278-87.515,135.229-144.499,190.623c-35.578,34.586-55.636,51.314-58.316,48.633
	c-0.869-0.869,4.904-9.109,12.832-18.313c67.234-78.063,89.55-106.146,107.623-135.443l5.554-9l-7.081,6
	c-3.895,3.3-26.742,29.625-50.773,58.5c-59.093,71.006-91.852,106.666-126.106,137.273
	c-33.412,29.855-131.777,104.254-134.387,101.644c-2.277-2.278,13.748-21.022,88.791-103.854
	c33.664-37.159,98.408-110.088,143.873-162.063c79.082-90.406,184.465-200.955,188.1-197.32c0.947,0.947-8.317,17.765-20.586,37.371
	c-21.7,34.678-36.389,60.949-34.076,60.949c0.628,0,12.363-16.537,26.081-36.75c39.521-58.234,66.239-91.363,74.327-92.159
	C4445.937,3480.041,4445.41,3481.688,4444.256,3483.75 M4307.949,3562.037c-5.746,5.52-35.087,32.663-65.199,60.318
	c-76.283,70.057-73.459,70.76,8.152,2.029c25.521-21.492,46.98-38.502,47.686-37.797c1.685,1.686,0.039,3.658-92.863,111.397
	c-88.004,102.059-173.738,198.587-188.751,212.515l-9.701,9l4.569-9c2.513-4.95,23.793-38.025,47.29-73.5
	c23.495-35.475,45.968-69.9,49.936-76.5l7.217-12l-14.07,15c-18.32,19.532-42.015,50.773-80.088,105.596
	c-39.654,57.1-44.737,63.904-47.734,63.904c-7.387,0,46.584-89.61,85.448-141.871c47.805-64.287,118.036-139.652,168.124-180.419
	c24.435-19.887,81.896-58.71,86.895-58.71C4316.807,3552,4313.697,3556.516,4307.949,3562.037 M1576.455,3622.5
	c21.488,44.45,47.043,106.498,76.606,186c13.499,36.3,25.716,68.025,27.149,70.5c5.109,8.822,2.686-2.991-7.527-36.686
	c-21.719-71.653-47.776-142.463-65.247-177.312c-4.825-9.623-8.265-19.019-7.646-20.88c2.121-6.362,46.227,63.75,90.647,144.098
	c12.99,23.497,24.172,42.168,24.849,41.491c2.426-2.425-34.738-76.005-59.201-117.212c-29.748-50.112-30.131-50.908-17.99-37.5
	c85.563,94.498,170.257,314.028,153.063,396.75c-7.098,34.148-20.121,20.329-76.534-81.212
	c-9.461-17.029-17.859-30.304-18.664-29.499c-1.711,1.711,21.631,56.188,38.41,89.645c6.396,12.75,11.629,23.889,11.629,24.75
	c0,4.385-8.773,0.592-15.462-6.684c-22.489-24.465-42.218-74.84-79.012-201.75c-28.845-99.492-44.639-145.196-73.674-213.198
	c-13.08-30.634-24.57-60.334-25.533-66c-1.687-9.927-1.569-10.083,3.216-4.302C1558.268,3586.8,1567.682,3604.35,1576.455,3622.5
	 M1079.906,3691.764c65.095,32.967,76.75,41.914,142.703,109.551c75.426,77.353,93.638,102.514,150.689,208.186
	c31.113,57.631,49.61,96.273,48.161,100.62c-0.627,1.883-11.402-9.899-23.944-26.187c-37.616-48.842-43.417-48.535-10.742,0.566
	c9.882,14.85,30.127,43.586,44.99,63.857c14.862,20.271,26.133,37.746,25.045,38.834c-4.642,4.642-57.293-56.385-178.825-207.27
	c-50.314-62.468-102.046-126.593-114.957-142.5s-24.755-31.254-26.32-34.104c-7.621-13.885,10.146,2.634,59.908,55.695
	c68.88,73.447,99.298,103.203,91.536,89.547c-12.225-21.509-69.17-83.902-149.479-163.78
	c-46.294-46.048-82.146-82.575-79.671-81.175c16.229,9.182,77.494,53.521,97.5,70.563c61.082,52.036,101.005,94.669,155.052,165.582
	c19.806,25.988,36.595,47.25,37.307,47.25c6.437,0-62.7-93.482-107.605-145.5c-40.031-46.37-71.503-71.645-188.076-151.038
	c-22.179-15.104-38.017-27.462-35.195-27.462C1020.802,3663,1048.668,3675.944,1079.906,3691.764 M3986.371,3717.385
	c-1.18,3.54-3.332,4.469-51.733,22.314c-35.451,13.07-75.117,30.822-73.188,32.751c0.756,0.755,14.801-3.951,31.211-10.458
	c16.412-6.506,32.539-11.836,35.84-11.844c5.479-0.014,5.349,0.487-1.5,5.779c-4.125,3.187-20.325,12.854-36,21.482
	c-55.936,30.79-92.209,54.648-159.647,105.008c-37.614,28.089-70.068,50.436-72.121,49.658
	c-4.084-1.545,10.877-16.414,78.019-77.539c23.513-21.405,42.75-39.584,42.75-40.398c0-3.197-18.203,9.604-52.455,36.89
	c-34.481,27.468-45,31.866-31.769,13.284c21.556-30.271,88.191-78.857,148.724-108.438c41.639-20.349,64.362-28.354,102-35.933
	C3978.842,3713.43,3987.883,3712.85,3986.371,3717.385 M3998.616,3736.969c-2.264,2.733-19.878,16.873-39.142,31.422
	c-39.811,30.069-46.618,37.256-22.271,23.516c24.549-13.854,21.432-4.833-5.061,14.646c-31.202,22.944-77.98,51.001-104.025,62.394
	c-37.043,16.204-32.089,7.866,13.943-23.468c32.766-22.304,37.375-26.479,29.23-26.479c-6.06,0-25.734,10.938-77.166,42.902
	c-35.455,22.033-47.612,27.028-38.209,15.697c9.467-11.404,109.633-75.633,175.842-112.752
	C3987.019,3733.868,4008.666,3724.842,3998.616,3736.969 M4638.506,3810.546c-3.75,69.545-9.34,116.562-21.51,180.954
	c-4.679,24.75-9.302,51.75-10.274,60l-1.769,15l4.311-11.088c2.369-6.098,9.311-29.723,15.424-52.5s12.284-42.694,13.713-44.262
	c10.016-10.984-6.25,94.869-24.061,156.586c-13.541,46.923-58.735,152.207-86.48,201.465c-15.941,28.302-15.9,16.372,0.078-22.709
	c24.6-60.17,53.305-155.26,42.502-140.797c-2.34,3.135-6.493,12.584-9.23,21C4533.67,4258.9,4414.357,4524,4403.774,4524
	c-3.769,0-4.386,2.838,10.749-49.418c20.357-70.29,66.018-205.958,100.49-298.582c53.18-142.889,93.527-264.458,89.206-268.78
	c-0.778-0.778-4.251,6.392-7.716,15.933c-3.467,9.542-34.828,94.298-69.692,188.348c-70.733,190.802-82.207,223.691-114.062,326.936
	c-12.207,39.563-22.662,69.502-23.234,66.529c-3.596-18.673,17.958-161.923,34.078-226.486c5.592-22.395,9.562-41.322,8.822-42.062
	c-2.361-2.362-14.082,27.126-22.746,57.231c-10.183,35.379-22.483,95.194-27.938,135.852l-4.024,30l-0.354-52.115
	c-0.675-99.445,18.165-177.857,70.176-292.074c30.508-66.991,84.91-164.235,87.551-156.492
	c0.623,1.824-17.859,52.969-41.069,113.653c-23.212,60.687-41.603,110.937-40.871,111.669
	c5.704,5.703,83.272-184.726,144.762-355.391c5.234-14.525,12.961-17.129,13.354-4.5c0.143,4.538,4.781-9.79,10.31-31.839
	c12.442-49.619,12.706-50.339,16.929-46.116C4640.891,3748.691,4640.895,3766.251,4638.506,3810.546 M908.524,3849.369
	c64.148,29.048,81.764,38.238,114.266,59.62c52.604,34.604,114.055,83.442,205.711,163.491c24.75,21.615,69.638,59.99,99.75,85.275
	c30.112,25.286,54.75,46.592,54.75,47.348s-4.05,0.483-8.997-0.603c-7.414-1.629-8.678-1.144-7.18,2.761
	c2.501,6.518-1.265,5.819-15.323-2.84c-12.283-7.564-21.314-9.783-18-4.422c4.318,6.988-11.125,1.882-42-13.885
	c-35.018-17.883-58.5-28.633-58.5-26.777c0,4.039,69.531,43.354,162.738,92.016c67.973,35.486,79.673,42.342,74.955,43.916
	c-4.849,1.615-56.422-18.386-119.939-46.517c-126.223-55.899-219.037-113.539-299.539-186.017
	c-29.665-26.708-79.909-79.042-77.856-81.096c0.571-0.57,15.119,9.515,32.329,22.411c56.55,42.376,151.031,106.927,138.813,94.837
	c-1.65-1.633-33.431-27.328-70.623-57.103c-68.495-54.833-137.831-115.144-167.811-145.964l-16.434-16.896l14.934,1.898
	c20.811,2.643,63.249,28.948,142.434,88.284c49.914,37.402,55.786,40.365,33,16.643c-36.093-37.573-99.089-82.623-172.928-123.665
	c-22.865-12.709-46.298-26.393-52.072-30.41l-10.5-7.302l8.907,2.035C858.307,3827.529,883.109,3837.86,908.524,3849.369
	 M2559.444,3858.755c13.352,21.419,40.018,76.826,54.809,113.886c15.17,38.004,24.775,76.824,34.73,140.359
	c18.407,117.471,23.677,138.573,47.953,192c18.184,40.021,19.742,45,14.079,45c-11.653,0-46.386-72.313-71.347-148.538
	c-9.987-30.504-18.785-55.462-19.551-55.462c-4.367,0,14.842,74.703,31.754,123.488c6.67,19.244,12.129,36.457,12.129,38.25
	c0,14.961-22.396-24.158-36.778-64.238c-9.974-27.794-15.292-55.475-26.226-136.5c-5.01-37.125-11.758-83.613-14.996-103.306
	c-3.238-19.694-5.164-36.53-4.28-37.414c3.047-3.048,6.841,6.924,14.657,38.521c12.234,49.461,16.548,63.198,19.843,63.198
	c3.923,0,1.651-13.329-9.714-57c-10.092-38.777-24.041-77.63-43.265-120.505c-14.157-31.574-18.315-44.498-14.316-44.49
	C2550.341,3846.008,2555.074,3851.746,2559.444,3858.755 M939,3912.137c23.313,22.463,102.781,86.331,159,127.789
	c92.326,68.086,216.613,151.074,226.257,151.074c0.854,0,0.777-2.025-0.173-4.5c-2.211-5.766,7.314-6.047,15.498-0.46
	c14.685,10.024,22.418,14.526,22.418,13.05c0-3.181-155.688-116.043-201-145.71c-31.177-20.413-6.324-0.565,58.5,46.72
	c74.487,54.334,102.584,76.705,98.178,78.174c-12.245,4.082-174.955-110.402-318.678-224.225
	C926.56,3896.68,913.456,3887.527,939,3912.137 M1710.25,3897.711c-0.42,3.698,53.816,143.438,63.766,164.289l9.304,19.5l1.056-15
	c2.118-30.135-15.877-115.447-31.312-148.428c-11.207-23.948-11.981-13.791-1.538,20.152c15.013,48.789,23.161,87.775,18.345,87.775
	c-1.221,0-9.155-17.212-17.631-38.25C1736.846,3949.542,1710.727,3893.532,1710.25,3897.711 M2633.779,3915.804
	c5.653,8.634,19.683,31.164,31.174,50.07c62.839,103.378,83.498,163.877,110.169,322.626c16.58,98.689,21.756,121.913,19.057,85.5
	c-4.321-58.282-24.587-192.361-35.903-237.544c-7.961-31.781-8.813-38.224-4.477-33.806c4.937,5.027,17.527,46.777,25.288,83.85
	c15.336,73.264,28.348,194.163,24.359,226.343l-2.025,16.343l-5.845-7.343c-9.583-12.038-43.403-83.214-54.097-113.843
	c-6.436-18.432-10.295-26.109-10.925-21.732c-0.537,3.721,6.821,29.657,16.35,57.635c9.529,27.978,16.244,51.933,14.921,53.232
	c-1.322,1.301-8.813-4.588-16.646-13.085c-11.265-12.22-17.146-22.883-28.13-51c-26.297-67.319-30.723-85.163-50.108-202.05
	c-11.919-71.868-18.416-99.188-36.242-152.396c-8.046-24.021-13.984-44.317-13.196-45.106c3.299-3.298,29.597,59.784,52.321,125.503
	c35.144,101.633,48.494,137.843,51.516,139.71c15.78,9.753-40.617-167.178-78.96-247.71c-20.613-43.295-23.818-51.008-21.17-50.946
	C2622.469,3900.084,2628.125,3907.171,2633.779,3915.804 M4312.43,3945.273c-45.729,46.386-124.563,111.244-201.491,165.773
	c-20.108,14.254-37.455,27.361-38.547,29.127c-3.219,5.21,31.442-13.338,68.069-36.423c38.281-24.128,64.265-42.471,101.539-71.681
	c14.024-10.991,29.414-22.54,34.196-25.665c8.647-5.648,8.679-5.646,5.431,0.423c-1.797,3.357-19.941,22.221-40.321,41.921
	c-58.114,56.173-97.511,81.146-258.425,163.808c-101.071,51.922-130.283,67.664-168.205,90.643
	c-9.803,5.941-19.799,10.801-22.215,10.801c-7.603,0,4.66-10.949,40.021-35.732c42.291-29.641,67.703-44.871,128.123-76.789
	c50.808-26.84,65.079-35.795,61.984-38.89c-1.001-1.001-24.606,9.593-52.455,23.541c-77.327,38.731-146.64,84.918-203.937,135.896
	c-14.02,12.475-26.201,21.971-27.07,21.103c-2.17-2.17,35.736-44.767,58.91-66.198c64.692-59.834,133.586-105.365,248.149-163.998
	c33.377-17.082,60.177-31.567,59.553-32.19c-4.781-4.782-156.474,70.47-203.621,101.012c-16.144,10.458-30.058,18.31-30.92,17.447
	c-3.589-3.589,70.387-54.866,130.413-90.396c29.138-17.246,71.232-39.961,204.387-110.29l22.5-11.884l-24,22.389
	c-13.201,12.314-23.121,23.289-22.047,24.389c2.024,2.072,77.918-54.315,122.547-91.048c14.024-11.544,26.817-21.072,28.43-21.175
	C4335.041,3921.083,4325.59,3931.923,4312.43,3945.273 M2702.144,3985.5c18.223,29.2,35.49,63.866,33.035,66.321
	c-2.292,2.292-11.406-11.523-39.251-59.497c-13.883-23.919-27.557-47.389-30.387-52.156
	C2652.912,3918.887,2686.651,3960.673,2702.144,3985.5 M1386.886,3993.75c5.538,8.663,24.059,40.725,41.157,71.25
	c57.115,101.971,82.423,140.854,131.341,201.794c15.63,19.472,27.76,36.062,26.956,36.866
	c-4.624,4.624-79.525-84.486-106.785-127.043c-29.758-46.458-97.623-171.83-103.859-191.867
	C1372.301,3973.841,1376.119,3976.912,1386.886,3993.75 M1919.903,4026.75c47.731,85.234,59.064,104.607,76.86,131.38
	c18.325,27.569,34.237,46.136,34.237,39.948c0-1.633-8.962-17.057-19.914-34.273c-37.653-59.191-86.551-149.912-84.354-156.502
	c0.844-2.531,124.328,154.016,188.678,239.197c25.753,34.089,51.841,75.081,69.195,108.723c25.438,49.315,23.379,57.336-4.19,16.32
	C2147.894,4323.164,2058,4218.047,2058,4228.398c0,4.174,14.566,28.105,35.313,58.015c10.648,15.353,18.759,28.515,18.023,29.251
	c-2.034,2.034-78.511-80.831-100.245-108.619c-24.412-31.21-45.721-67.229-78.706-133.045c-26.145-52.163-38.143-81-33.702-81
	C1899.959,3993,1909.508,4008.188,1919.903,4026.75 M1987.283,4021.869c32.665,26.943,104.624,98.406,125.267,124.4
	c36.77,46.306,58.139,91.059,83.366,174.596c6.646,22.006,12.009,41.951,11.916,44.322c-0.092,2.373-17.084-29.438-37.762-70.688
	c-42.133-84.055-67.47-128.324-85.557-149.482c-23.075-26.996-18.055-13.899,18.2,47.482c21.829,36.959,26.64,49.275,15.2,38.923
	c-3.346-3.028-21.232-25.175-39.748-49.214c-18.517-24.04-49.19-63.5-68.166-87.689c-32.827-41.849-47.283-62.52-43.721-62.52
	c0.891,0,14.129,11.554,29.419,25.675c28.396,26.224,44.444,38.288,35.343,26.566c-2.45-3.157-18.988-21.578-36.75-40.936
	c-17.76-19.356-32.291-35.895-32.291-36.75C1962,4002.441,1968.509,4006.383,1987.283,4021.869 M1652.212,4110.242
	c68.831,73.984,111.452,112.262,149.288,134.072c31.494,18.158,38.998,18.465,13.5,0.556
	c-49.698-34.906-127.741-107.644-158.675-147.884c-25.522-33.205-17.366-28.078,97.175,61.07
	c126.2,98.225,214.869,169.45,243.174,195.336c28.558,26.117,66.16,65.615,62.438,65.588c-1.437-0.01-29.612-21.144-62.612-46.963
	c-62.455-48.865-101.23-76.018-108.556-76.018c-7.287,0,1.075,9.083,34.463,37.438c16.999,14.436,30.172,26.982,29.272,27.883
	c-3.732,3.731-117.615-70.449-166.512-108.463c-57.804-44.938-139.344-130.531-193.25-202.857l-14.533-19.5l12.879,13.5
	C1597.347,4051.425,1625.224,4081.234,1652.212,4110.242 M1701.85,4072.903c54.079,27.309,150.449,90.96,191.953,126.78
	c35.685,30.799,108.808,104.705,106.188,107.325c-1.672,1.673-38.529-29.313-46.981-39.499
	c-8.358-10.07-51.009-46.957-51.009-44.113c0,1.666,25.815,30.217,57.369,63.447c31.554,33.229,56.813,60.975,56.131,61.655
	c-0.681,0.681-10.635-6.976-22.119-17.017c-29.96-26.189-79.472-65.496-161.881-128.518c-95.172-72.777-136.5-105.761-136.5-108.933
	c0-3.308,16.596,6.356,76.5,44.54c26.399,16.828,52.725,32.972,58.5,35.876l10.5,5.278l-9-9.664
	c-11.053-11.869-50.771-39.746-100.217-70.336c-40.481-25.045-54.028-34.727-48.589-34.727
	C1684.623,4065,1693.241,4068.556,1701.85,4072.903 M2426.129,4206.344c49.07,21.287,140.039,66.783,178.481,89.266
	c38.942,22.774,68.937,48.259,136.03,115.578c52.036,52.211,83.999,88.172,81.019,91.152c-0.907,0.908-10.973-7.346-22.364-18.344
	S2777.651,4464,2776.512,4464c-2.238,0,21.259,28.887,25.76,31.668c1.5,0.928,2.729,3.68,2.729,6.115c0,6.865-6.414,2.298-51-36.322
	c-102.586-88.854-238.816-189.648-344.25-254.702c-15.263-9.417-27.75-17.716-27.75-18.44
	C2382,4188.6,2394.066,4192.436,2426.129,4206.344 M2402.469,4222.496c108.313,64.709,214.501,143.777,354.531,263.988
	c80.217,68.865,147.772,133.742,143.604,137.91c-0.617,0.617-46.411-28.808-101.765-65.387
	c-105.603-69.783-130.686-85.234-122.943-75.732c6.148,7.549,75.651,59.121,117.854,87.451c19.388,13.014,35.25,24.734,35.25,26.045
	c0,2.86-5.293,0.203-69-34.651c-162.154-88.716-238.732-141.722-309.197-214.021c-32.079-32.914-117.555-136.062-115.019-138.798
	c0.611-0.659,20.384,17.566,43.94,40.5c66.242,64.492,162.8,144.673,221.127,183.622c19.063,12.73,24.148,14.801,24.148,9.835
	c0-3.116-34.66-32.239-71.016-59.672c-54.439-41.079-169.226-143.209-193.382-172.062
	C2342.526,4189.934,2352.218,4192.475,2402.469,4222.496 M4126.213,4278.666c-70.161,72.857-218.901,214.426-313.963,298.825
	c-32.588,28.932-59.25,53.799-59.25,55.261c0,11.063,135.953-112.031,294-266.191c93.199-90.908,115.881-111.68,118.785-108.775
	c4.547,4.548-23.896,48.271-60.867,93.566c-22.231,27.235-25.514,32.84-17.418,29.733c2.475-0.95,4.5-0.69,4.5,0.577
	c0,7.967-84.269,107.055-116.123,136.546c-28.886,26.74-119.103,85.752-171.053,111.888c-23.763,11.954-31.688,13.646-28.812,6.149
	c1.362-3.55-2.655-2.515-15.845,4.078c-9.718,4.856-19.355,8.233-21.418,7.504c-5.266-1.863-4.664-9.845,1.231-16.359
	c8.21-9.073,1.954-9.894-9.399-1.233c-5.82,4.438-10.582,6.578-10.582,4.754c0-9.885,71.642-101.525,105.295-134.69
	c46.539-45.86,191.389-160.614,196.405-155.597c0.85,0.849-8.975,12.791-21.829,26.539c-19.054,20.378-10.346,13.619,47.129-36.579
	c77.246-67.468,101.978-87.683,104.36-85.3C4152.222,4250.223,4140.904,4263.409,4126.213,4278.666 M1901.648,4357.43
	c89.462,51.361,156.988,96.329,195.353,130.09c69.045,60.762,150.309,142.172,146.107,146.373
	c-3.406,3.405-150.033-45.096-199.861-66.11c-60.549-25.536-85.723-53.765-148.254-166.238
	c-25.489-45.849-33.686-63.544-29.434-63.544C1866.796,4338,1883.034,4346.743,1901.648,4357.43 M2653.5,4354.916
	C2702.98,4404.521,2759.955,4458,2763.323,4458c5.259,0-44.713-50.411-81.323-82.038
	C2647.727,4346.355,2637.224,4338.6,2653.5,4354.916 M4063.311,4401.75l-8.811,9.75l9.75-8.811
	c9.088-8.215,11.129-10.689,8.811-10.689C4072.545,4392,4068.156,4396.389,4063.311,4401.75 M1356,4468.869
	c55.974,7.988,168.149,36.109,255.614,64.078c67.097,21.455,47.693,20.842-44.114-1.393c-87.505-21.195-125.829-27.974-187.5-33.168
	c-12.375-1.041-21.75-1.141-20.83-0.221c2.996,3.003,244.925,54.415,319.33,67.859c40.866,7.385,49.043,11.291,35.627,17.02
	c-7.084,3.025,7.74,3.717,82.873,3.866c106.851,0.211,121.066,3.162,74.463,15.458c-50.813,13.404-132.688,20.354-242.213,20.552
	c-23.787,0.044-42.622,0.707-41.854,1.476c3.304,3.304,59.188,11.015,95.265,13.146c36.853,2.176,45.833,3.964,41.53,8.267
	c-5.53,5.53-79.515,7.974-143.399,4.734c-80.338-4.072-89.463-6.092-199.291-44.107c-97.49-33.746-200.102-67.979-233.637-77.947
	c-35.652-10.596-31.391-15.778,7.51-9.131c43.229,7.388,89.43,20.424,181.127,51.105c82.953,27.756,131.326,41.098,163.5,45.098
	c22.397,2.783,16.702-2.205-12-10.513c-80.723-23.36-246.733-80.499-253.224-87.155c-4.509-4.623,6.711-2.516,91.224,17.131
	c185.916,43.219,210.591,48.106,254.559,50.426l28.941,1.525l-19.5-4.723c-283.011-68.553-312.918-74.97-364.443-78.193
	c-32.559-2.037-43.547-5.265-37.734-11.086c2.217-2.221,21.537-4.017,53.572-4.979l50.105-1.507l-18-4.295
	c-13.618-3.248-37.318-4.159-97.348-3.746c-82.806,0.572-97.646-2.225-45.466-8.568
	C1205.781,4460.749,1296.271,4460.344,1356,4468.869 M3967.359,4485.313c-17.049,17.701-83.311,70.445-126.862,100.984
	c-20.554,14.412-41.561,29.992-46.684,34.624l-9.313,8.421l10.5-5.06c33.313-16.052,170.976-123.563,184.347-143.97
	C3986.725,4469.052,3980.531,4471.635,3967.359,4485.313 M3817.518,4536.75c-56.832,57.32-77.988,81.459-65.565,74.811
	c20.255-10.84,135.161-132.561,125.141-132.561C3875.819,4479,3849.01,4504.988,3817.518,4536.75 M3720,4650.116
	c0,4.854-23.273,28.61-25.675,26.21c-2.345-2.346,3.449-12.049,13.478-22.576C3714.639,4646.574,3720,4644.977,3720,4650.116
	 M2255.25,4829.021c20.213,1.041,36.75,2.787,36.75,3.881s-9.112,4.857-20.25,8.365l-20.25,6.377l30-1.662
	c16.5-0.914,45.524-3.336,64.5-5.383c32.901-3.548,38.955-3.555,35.44-0.041c-2.204,2.205-70.977,17.107-144.37,31.284
	c-66.827,12.909-88.245,19.862-51.57,16.742c26.42-2.248,124.922-17.251,179.346-27.317c57.384-10.615,66.726-8.591,24.654,5.34
	c-101.885,33.736-261.75,63.99-418.5,79.201c-53.897,5.229-171.643,7.502-175.783,3.392c-5.709-5.667,7.939-8.618,72.4-15.655
	c66.638-7.275,180.727-22.331,220.072-29.041c31.473-5.367,14.591-8.509-28.396-5.283c-21.336,1.6-84.961,7.605-141.386,13.344
	c-101.491,10.324-144.873,12.783-135.907,7.705c5.596-3.17,86.822-17.807,251.202-45.264c69.687-11.641,129.762-22.393,133.5-23.895
	c6.645-2.67,6.617-2.735-1.189-2.922c-12.162-0.289-234.14,30.326-293.513,40.481c-34.087,5.83,45.123-24.496,105.868-40.532
	C2063.299,4825.584,2116.859,4821.893,2255.25,4829.021 M2505,4839.488c-11.463,9.611-110.312,56.992-157.5,75.494
	c-23.101,9.058-55.838,20.642-72.75,25.742c-16.912,5.102-44.393,13.408-61.065,18.461c-16.673,5.051-29.577,9.922-28.676,10.823
	c5.171,5.171,144.368-26.354,180.827-40.952c44.732-17.912,32.817-5.468-20.237,21.139
	c-129.698,65.039-252.332,89.072-373.466,73.193c-58.737-7.699-154.385-30.514-158.958-37.914c-1.449-2.346,0.532-2.67,6.629-1.088
	c12.291,3.189,203.333,5.633,240.991,3.081c58.547-3.966,24.027-7.631-98.967-10.509c-118.167-2.766-147.004-4.443-155.685-9.059
	c-6.581-3.5,19.936-5.467,97.356-7.217c97.483-2.205,186.818-12.424,292.5-33.457c109.834-21.86,211.941-51.728,274.834-80.392
	c16.316-7.437,32.365-13.546,35.666-13.578C2512.013,4833.204,2511.891,4833.71,2505,4839.488"/>
</svg>
